<svg width="152" height="26" viewBox="0 0 152 26" fill="none" xmlns="http://www.w3.org/2000/svg">
<path d="M80.3083 0.728516H97.2096V4.86388H84.8738V10.7361H96.8663V14.7309H84.8738V20.7023H97.2096V24.8377H80.3083V0.728516ZM143.885 25.2719C149.067 25.2719 151.987 22.7907 151.987 19.3831C151.987 16.9557 150.258 15.1444 146.64 14.3587L142.814 13.5771C140.594 13.1635 139.895 12.75 139.895 11.9229C139.895 10.8519 140.966 10.1944 142.938 10.1944C145.076 10.1944 146.66 10.7692 147.074 12.7459H151.557C151.313 9.02405 148.637 6.56765 143.211 6.56765C138.522 6.56765 135.23 8.503 135.23 12.2538C135.23 14.8466 137.041 16.5339 140.949 17.3568L145.225 18.3452C146.913 18.676 147.363 19.1309 147.363 19.8298C147.363 20.9422 146.09 21.641 144.03 21.641C141.441 21.641 139.961 21.0662 139.386 19.0895H134.879C135.536 22.8031 138.29 25.2719 143.885 25.2719ZM133.576 24.8211H128.725C125.682 24.8211 123.994 22.9271 123.994 20.5369V11.0669H120.583V7.03081H124.011V1.96499H128.518V7.03081H133.576V11.0669H128.518V19.3831C128.518 20.3301 129.176 20.785 130.206 20.785H133.576V24.8211ZM114.14 7.03908V8.6436C112.553 7.30203 110.54 6.56907 108.462 6.57592C107.218 6.54975 105.981 6.77219 104.824 7.23022C103.667 7.68824 102.613 8.37263 101.724 9.24326C100.835 10.1139 100.128 11.1533 99.6459 12.3004C99.1636 13.4476 98.9152 14.6795 98.9152 15.9239C98.9152 17.1683 99.1636 18.4002 99.6459 19.5474C100.128 20.6945 100.835 21.7339 101.724 22.6045C102.613 23.4752 103.667 24.1596 104.824 24.6176C105.981 25.0756 107.218 25.2981 108.462 25.2719C110.54 25.2809 112.554 24.5477 114.14 23.2042V24.8129H118.635V7.03081L114.14 7.03908ZM108.834 21.3681C107.756 21.3804 106.698 21.0719 105.796 20.4817C104.893 19.8915 104.187 19.0463 103.766 18.0535C103.345 17.0608 103.228 15.9653 103.431 14.9062C103.634 13.8472 104.148 12.8724 104.906 12.1059C105.665 11.3393 106.634 10.8155 107.691 10.6011C108.747 10.3866 109.844 10.4912 110.841 10.9016C111.839 11.3119 112.691 12.0095 113.291 12.9056C113.891 13.8017 114.211 14.8559 114.21 15.9342C114.217 16.6451 114.082 17.3502 113.814 18.0087C113.547 18.6672 113.151 19.2661 112.65 19.7707C112.149 20.2753 111.554 20.6755 110.897 20.9483C110.241 21.2211 109.537 21.361 108.826 21.3598L108.834 21.3681Z" fill="#05C167"/>
<path d="M70.2511 10.368C67.9891 10.368 66.3845 12.138 66.3845 14.8549V24.8211H62.9315V7.27893H66.3432V9.42105C66.764 8.71107 67.3671 8.12656 68.0898 7.7281C68.8126 7.32963 69.6287 7.13172 70.4537 7.15487H71.6944V10.368H70.2511ZM60.5454 16.05C60.5454 10.8188 56.8236 6.90675 51.7867 6.90675C50.5966 6.91483 49.4199 7.15814 48.3242 7.62269C47.2285 8.08724 46.2354 8.76386 45.4022 9.61362C44.569 10.4634 43.912 11.4695 43.469 12.5741C43.0261 13.6787 42.8059 14.86 42.8212 16.05C42.8212 21.2771 46.8532 25.2305 52.1134 25.2305C53.5828 25.2583 55.0372 24.9324 56.3543 24.2804C57.6713 23.6283 58.8123 22.6692 59.6811 21.4839L57.1751 19.6478C56.6001 20.4502 55.8394 21.1015 54.9579 21.5458C54.0764 21.9902 53.1004 22.2144 52.1134 22.1993C50.7076 22.1927 49.3507 21.6827 48.2886 20.7617C47.2265 19.8407 46.5295 18.5697 46.3239 17.179H60.5537L60.5454 16.05ZM46.3983 14.4414C47.0145 11.7658 49.1525 9.95451 51.7453 9.95451C54.3382 9.95451 56.4721 11.7658 57.051 14.4414H46.3983ZM31.8832 6.90675C30.7292 6.90772 29.5869 7.13736 28.5222 7.5824C27.4575 8.02745 26.4915 8.67907 25.6801 9.49962V0.728516H22.2271V24.8211H25.6388V22.5963C27.2916 24.2683 29.5405 25.2158 31.8915 25.2305C33.111 25.2564 34.3234 25.0386 35.4577 24.5898C36.5919 24.1411 37.6252 23.4703 38.4968 22.617C39.3685 21.7637 40.061 20.7449 40.5338 19.6205C41.0066 18.496 41.2501 17.2885 41.2501 16.0686C41.2501 14.8488 41.0066 13.6413 40.5338 12.5168C40.061 11.3924 39.3685 10.3736 38.4968 9.52028C37.6252 8.66695 36.5919 7.99624 35.4577 7.54745C34.3234 7.09866 33.111 6.88084 31.8915 6.90675H31.8832ZM31.6351 22.1456C30.4315 22.1513 29.2533 21.7994 28.2501 21.1344C27.2468 20.4695 26.4637 19.5215 26.0001 18.4108C25.5365 17.3001 25.4132 16.0767 25.646 14.8958C25.8788 13.7149 26.4572 12.6298 27.3077 11.7782C28.1581 10.9265 29.2425 10.3467 30.423 10.1123C31.6036 9.87785 32.8271 9.9994 33.9385 10.4615C35.0499 10.9236 35.9989 11.7054 36.6652 12.7078C37.3315 13.7101 37.6851 14.8878 37.681 16.0914C37.6821 16.8853 37.5264 17.6715 37.2228 18.4051C36.9193 19.1386 36.4738 19.805 35.9121 20.366C35.3504 20.927 34.6834 21.3715 33.9494 21.674C33.2154 21.9766 32.4289 22.1312 31.6351 22.129V22.1456ZM9.51087 21.9801C12.844 21.9801 15.4327 19.4245 15.4327 15.5951V0.728516H19.0098V24.8211H15.4741V22.5426C14.648 23.3963 13.6573 24.0736 12.562 24.5335C11.4666 24.9934 10.2894 25.2263 9.10147 25.2181C3.96121 25.2181 0.00366211 21.4715 0.00366211 15.7895V0.728516H3.64692V15.6158C3.64692 19.4658 6.12814 21.9801 9.51087 21.9801Z" fill="black"/>
</svg>
