<svg width="118" height="26" viewBox="0 0 118 26" fill="none" xmlns="http://www.w3.org/2000/svg">
<path d="M98.8489 1.07103H94.7486C94.5173 1.07103 94.402 1.1866 94.402 1.41764V17.6463C94.402 18.4549 94.1421 19.0612 93.7954 19.5235C93.4491 19.9855 92.9871 20.1009 92.4093 20.1009C91.8319 20.1009 91.341 19.8698 90.9944 19.5235C90.648 19.0612 90.4171 18.4549 90.4171 17.6463V1.41764C90.4171 1.1866 90.1857 1.07103 90.0704 1.07103H85.9409C85.7098 1.07103 85.5945 1.1866 85.5945 1.41764V17.762C85.5945 19.8699 86.0565 21.8624 87.3559 23.1618C88.6265 24.4614 90.388 25.1544 92.4092 25.1544C94.5172 25.1544 96.2788 24.4614 97.4627 23.1618C98.7334 21.8914 99.2243 20.0145 99.2243 17.762V1.41764C99.3398 1.30226 99.1088 1.07103 98.8489 1.07103ZM114.587 12.5931C115.28 11.8999 116.58 10.254 116.58 8.11713C116.58 5.63386 115.627 4.13223 114.905 3.29462C113.605 1.90855 111.872 1.1866 109.851 1.1866H103.383C103.123 1.1866 103.007 1.41764 103.007 1.53303V24.4614C103.007 24.6923 103.238 24.808 103.383 24.808H110.226C112.334 24.808 114.327 23.9994 115.627 22.3245C116.32 21.4004 117.157 19.8409 117.157 17.5021C116.926 14.701 115.193 13.055 114.587 12.5931ZM107.772 5.89345H109.88C110.458 5.89345 110.919 6.00883 111.266 6.47101C111.641 6.84635 111.757 7.424 111.757 8.14586C111.757 8.86772 111.641 9.41627 111.266 9.90745C110.919 10.2539 110.458 10.4849 109.996 10.4849H107.888V5.89345H107.772ZM111.526 19.4078C111.179 19.8699 110.717 19.9855 109.995 19.9855H107.657V15.0185H109.995C110.573 15.0185 111.035 15.2783 111.381 15.6251C111.757 16.087 111.988 16.6645 111.988 17.3864C112.103 18.3393 111.901 18.917 111.526 19.4078ZM27.8986 14.5854C28.3605 14.239 28.736 14.0079 29.0825 13.517C29.891 12.593 30.9594 10.9468 30.9594 8.34799C30.9594 5.86454 30.0065 4.24752 29.0825 3.29462C27.8986 1.90855 26.137 1.1866 24.1445 1.07103H17.3296C17.0985 1.07103 16.983 1.30226 16.983 1.41764V24.3172C16.983 24.5481 17.2141 24.6636 17.3296 24.6636H21.43C21.6611 24.6636 21.7766 24.4324 21.7766 24.3172V15.8561H23.1916L25.7616 24.5481C25.7616 24.6636 26.0215 24.7791 26.1371 24.7791H30.4686C30.584 24.7791 30.6996 24.6636 30.8151 24.6636C30.9306 24.6636 30.9306 24.4324 30.9306 24.3172L27.8986 14.5854ZM25.2995 10.3403C24.953 10.8027 24.3755 11.0623 23.6535 11.0623H21.661V5.89345H23.6535C24.3465 5.89345 24.924 6.12449 25.2995 6.58649C25.7615 7.07758 25.9059 7.65504 25.9059 8.46365C25.9059 9.30098 25.7904 9.87835 25.2995 10.3403ZM62.6374 12.5931C63.3593 11.8999 64.63 10.254 64.63 8.11713C64.63 5.63386 63.7059 4.13223 62.984 3.29462C61.6846 1.90855 59.9229 1.1866 57.9305 1.1866H51.4908C51.2599 1.1866 51.1443 1.41764 51.1443 1.53303V24.4614C51.1443 24.6923 51.3754 24.808 51.4908 24.808H58.3059C60.4139 24.808 62.4064 23.9994 63.7347 22.3245C64.4278 21.4004 65.2652 19.8409 65.2652 17.5021C65.1209 14.701 63.3593 13.055 62.6374 12.5931ZM55.8513 5.89345H57.9594C58.5369 5.89345 58.999 6.00883 59.3455 6.47101C59.6919 6.84635 59.8076 7.424 59.8076 8.14586C59.8076 8.86772 59.6919 9.41627 59.3455 9.90745C58.9989 10.2539 58.5369 10.4849 58.0748 10.4849H55.9667V5.89345H55.8513ZM59.7208 19.4078C59.3744 19.8699 58.9122 19.9855 58.1903 19.9855H55.8513V15.0185H58.1903C58.7678 15.0185 59.2299 15.2783 59.5764 15.6251C59.9228 16.087 60.1828 16.6645 60.1828 17.3864C60.2117 18.3393 60.0963 18.917 59.7208 19.4078ZM6.8473 0.724609C4.73919 0.724609 2.97778 1.41764 1.79384 2.71697C0.523149 4.01648 0.0611572 5.86454 0.0611572 8.11704V17.8773C0.0611572 19.9855 0.523149 21.9777 1.79384 23.2774C3.09325 24.577 4.85475 25.2701 6.8473 25.2701C8.95522 25.2701 10.7455 24.5771 11.9295 23.2774C13.2002 22.0067 13.6622 20.1298 13.6622 17.8773V12.5061C13.6622 12.2464 13.4311 12.0155 13.2002 12.0155H7.22264C6.96286 12.0155 6.73182 12.2464 6.73182 12.5061V16.4913C6.73182 16.7222 6.96286 16.9534 7.22264 16.9534H8.75319V17.9063C8.75319 18.7149 8.52214 19.4368 8.17572 19.8989C7.82902 20.361 7.33829 20.4764 6.76064 20.4764C6.18318 20.4764 5.72109 20.2454 5.34575 19.8989C4.99923 19.4368 4.76828 18.715 4.76828 17.9063V8.26161C4.76828 7.424 4.99923 6.70205 5.34575 6.2687C5.72118 5.80671 6.18318 5.69132 6.76064 5.69132C7.33829 5.69132 7.82911 5.92237 8.17572 6.2687C8.52224 6.73078 8.75319 7.424 8.75319 8.26161V9.1856C8.75319 9.41636 8.98414 9.56084 9.0997 9.56084H13.2003C13.4312 9.56084 13.5468 9.41636 13.5468 9.1856V8.26161C13.5468 6.15332 13.0848 4.16087 11.7854 2.86145C10.7456 1.41764 8.83975 0.724609 6.8473 0.724609ZM47.0439 1.07103H42.9434C42.7123 1.07103 42.5968 1.1866 42.5968 1.41764V17.6463C42.5968 18.4549 42.337 19.0612 41.9905 19.5235C41.6439 19.9855 41.1818 20.1009 40.6043 20.1009C40.0268 20.1009 39.5358 19.8698 39.1894 19.5235C38.8429 19.0612 38.612 18.4549 38.612 17.6463V1.41764C38.612 1.1866 38.352 1.07103 38.2365 1.07103H34.1361C33.905 1.07103 33.7895 1.1866 33.7895 1.41764V17.762C33.7895 19.8699 34.2804 21.8624 35.5509 23.1618C36.8504 24.4614 38.612 25.1544 40.6044 25.1544C42.7125 25.1544 44.5028 24.4614 45.6579 23.1618C46.9573 21.8914 47.4193 20.0145 47.4193 17.762V1.41764C47.3904 1.30226 47.2749 1.07103 47.0439 1.07103ZM81.5805 1.07103H77.4801C77.2491 1.07103 77.1337 1.30226 77.1337 1.41764V10.3403H73.0332V1.41764C73.0332 1.1866 72.8021 1.07103 72.6866 1.07103H68.586C68.355 1.07103 68.2396 1.30226 68.2396 1.41764V24.3172C68.2396 24.5481 68.4706 24.6636 68.586 24.6636H72.6866C72.9175 24.6636 73.0332 24.4324 73.0332 24.3172V15.1631H77.1337V24.3172C77.1337 24.5481 77.3647 24.6636 77.4801 24.6636H81.5805C81.8117 24.6636 81.9272 24.4324 81.9272 24.3172V1.41764C81.9272 1.30226 81.8117 1.07103 81.5805 1.07103Z" fill="#F63440"/>
</svg>
