<svg width="153" height="26" viewBox="0 0 153 26" fill="none" xmlns="http://www.w3.org/2000/svg">
<path d="M0.79834 24.8841V0.724609H10.8497C15.1743 0.724609 17.9865 3.87549 17.9865 8.06618C17.9865 12.2569 15.1743 15.4156 10.8497 15.4156H4.64243V24.8683L0.79834 24.8841ZM4.64243 3.98578V12.186H10.6764C12.5984 12.186 14.1424 10.2324 14.1424 8.06618C14.1424 5.89994 12.5669 3.98578 10.6764 3.98578H4.64243ZM37.3802 19.8111C38.6169 19.5669 39.8222 19.3306 41.0195 19.1258C41.2637 20.4965 42.0829 22.1428 44.8636 22.1428C45.4859 22.1428 48.5344 21.9065 48.5344 19.7087C48.5344 15.5574 37.9001 19.8426 37.9001 12.3987C37.9001 9.4447 40.8462 7.21544 44.5564 7.21544C48.2665 7.21544 51.4174 8.79089 51.9373 12.635C50.7006 12.8477 49.4954 13.084 48.298 13.3282C48.0539 11.1619 46.7226 10.3742 44.6588 10.3742C42.8391 10.3742 41.6024 11.3352 41.6024 12.3987C41.6024 13.8087 42.91 14.1789 44.966 14.3916C48.9046 14.8012 52.2052 15.6598 52.2052 19.7087C52.2052 23.348 49.0543 25.2701 44.8636 25.2701C40.4051 25.2701 37.8607 22.9069 37.3802 19.8111ZM53.1741 10.3585V7.52265H56.1595V2.48123H59.8697V7.49115H63.4696V10.3585H59.8697V20.205C59.8697 21.5756 60.2793 21.9931 61.4452 21.9931C61.9572 21.9931 63.0915 21.9222 63.0915 21.9222V24.9077C63.0915 24.9077 61.7603 25.0416 60.4448 25.0416C57.1836 25.0416 56.1201 23.2929 56.1201 19.9687V10.3585H53.1741ZM76.3804 15.2108C76.3804 12.5641 75.7975 10.3348 73.0168 10.3348C70.3701 10.3348 69.6532 12.5641 69.6532 15.2108V24.8841H65.9431V7.55417H69.3066L69.6532 9.43682C70.1653 8.4758 72.2291 7.20756 74.2535 7.20756C75.2222 7.15075 76.1877 7.36453 77.0418 7.825C77.896 8.28546 78.6052 8.97445 79.0901 9.81493C80.0197 8.23948 82.2411 7.20756 84.3049 7.20756C89.0312 7.20756 90.4806 10.0906 90.4806 15.2423V24.9156H86.8256V15.2108C86.8256 12.5956 86.1088 10.3033 83.462 10.3033C80.6814 10.3033 80.0984 12.5326 80.0984 15.2108V24.8841H76.3961L76.3804 15.2108ZM97.2078 13.5094C96.0105 13.3045 94.7737 13.0288 93.537 12.824C93.9151 8.97995 97.0739 7.19181 100.713 7.19181C105.621 7.19181 108.157 9.55498 108.157 14.3286V20.3704C108.157 21.4023 108.362 21.9853 109.087 21.9853C109.389 21.9809 109.688 21.9332 109.977 21.8435V24.8683C109.261 25.0624 108.521 25.1553 107.779 25.144C107.056 25.1903 106.343 24.9608 105.783 24.5017C105.223 24.0427 104.858 23.3882 104.762 22.6706C104.096 23.4636 103.268 24.1041 102.333 24.5486C101.398 24.993 100.378 25.231 99.3425 25.2464C95.3251 25.2464 92.9226 23.0093 92.9226 19.7324C92.9226 17.0226 95.4275 14.5492 100.012 14.5492H104.478V13.5094C104.478 12.1702 103.927 10.3585 100.737 10.3585C98.6099 10.3585 97.3023 11.4219 97.2314 13.5094M104.478 18.1727V17.3141H100.39C97.3417 17.3141 96.7194 18.8895 96.7194 19.7166C96.7194 20.8825 97.5071 22.0798 99.7758 22.0798C102.793 22.0798 104.502 20.0238 104.502 18.1412M27.0138 25.2622C25.2268 25.2622 23.4799 24.7323 21.9941 23.7395C20.5083 22.7467 19.3502 21.3356 18.6663 19.6846C17.9825 18.0337 17.8036 16.217 18.1522 14.4643C18.5008 12.7117 19.3613 11.1018 20.6249 9.83816C21.8885 8.57457 23.4984 7.71404 25.2511 7.36542C27.0037 7.01679 28.8204 7.19572 30.4714 7.87957C32.1224 8.56343 33.5335 9.72148 34.5263 11.2073C35.5191 12.6931 36.049 14.44 36.049 16.227C36.0469 18.6226 35.0943 20.9196 33.4003 22.6135C31.7063 24.3075 29.4094 25.2601 27.0138 25.2622ZM27.0138 10.642C25.9073 10.642 24.8256 10.9703 23.9057 11.5852C22.9858 12.2001 22.269 13.074 21.8459 14.0964C21.4228 15.1188 21.3125 16.2438 21.529 17.3289C21.7454 18.414 22.2789 19.4105 23.0618 20.1924C23.8448 20.9743 24.8421 21.5063 25.9275 21.7212C27.0129 21.9361 28.1377 21.8242 29.1595 21.3997C30.1813 20.9752 31.0543 20.2571 31.6679 19.3364C32.2815 18.4156 32.6082 17.3335 32.6066 16.227C32.6045 14.745 32.0144 13.3245 30.9657 12.2774C29.9171 11.2302 28.4957 10.642 27.0138 10.642ZM133.041 18.8501C134.176 19.1573 135.302 19.496 136.436 19.8426C135.649 22.3476 133.286 25.2307 128.559 25.2307C123.833 25.2307 120.39 21.5599 120.39 16.2034C120.39 10.8468 123.541 7.17606 128.386 7.17606C133.23 7.17606 136.216 10.4057 136.216 15.652C136.226 16.2043 136.202 16.7568 136.145 17.3062H124.219C124.29 19.8427 126.038 22.1034 128.543 22.1034C129.547 22.1316 130.531 21.828 131.344 21.2399C132.158 20.6517 132.754 19.8117 133.041 18.8501ZM132.254 14.5255C132.151 11.9497 130.914 10.3033 128.37 10.3033C125.826 10.3033 124.495 12.3593 124.392 14.5255H132.254ZM137.807 19.8111C139.044 19.5748 140.249 19.3306 141.446 19.1258C141.691 20.4965 142.51 22.1428 145.29 22.1428C145.905 22.1428 148.961 21.9065 148.961 19.7087C148.961 15.5574 138.327 19.8505 138.327 12.3987C138.327 9.45258 141.273 7.21544 144.983 7.21544C148.693 7.21544 151.844 8.79089 152.356 12.6429C151.127 12.8477 149.922 13.084 148.725 13.3282C148.481 11.1619 147.149 10.3742 145.086 10.3742C143.266 10.3742 142.029 11.3352 142.029 12.3987C142.029 13.8087 143.337 14.1868 145.393 14.3916C149.331 14.8012 152.632 15.6598 152.632 19.7087C152.632 23.348 149.481 25.2701 145.29 25.2701C140.832 25.2701 138.288 22.9069 137.807 19.8111ZM109.425 10.3585V7.52265H112.411V2.48123H116.121V7.49115H119.721V10.3585H116.121V20.205C116.121 21.5756 116.531 21.9931 117.736 21.9931C118.248 21.9931 119.382 21.9222 119.382 21.9222V24.9077C119.382 24.9077 118.059 25.0416 116.735 25.0416C113.482 25.0416 112.411 23.2929 112.411 19.9687V10.3585H109.425Z" fill="black"/>
</svg>
