<svg width="191" height="25" viewBox="0 0 191 25" fill="none" xmlns="http://www.w3.org/2000/svg">
<path d="M55.3406 6.97779V17.7937H57.77C58.39 17.7835 59.0018 17.6353 59.5693 17.358C60.1369 17.0807 60.6485 16.6799 61.074 16.1792C61.9474 15.1528 62.4252 13.7885 62.4058 12.3768C62.4243 11.6756 62.3178 10.9773 62.0925 10.3219C61.8671 9.66652 61.5273 9.06704 61.0926 8.55789C60.6653 8.05653 60.1501 7.65758 59.5787 7.3856C59.0072 7.11362 58.3917 6.97436 57.77 6.97641H55.3418L55.3406 6.97779ZM57.77 3.58656C62.298 3.58656 65.7234 7.48111 65.7234 12.3768C65.7234 17.2725 62.298 21.189 57.77 21.189H52.4119C52.3608 21.1883 52.3104 21.1764 52.2634 21.1541C52.2165 21.1317 52.174 21.0993 52.1383 21.0587C52.1026 21.0181 52.0745 20.9701 52.0556 20.9174C52.0366 20.8647 52.0272 20.8084 52.0279 20.7517V4.04175C52.0279 3.79972 52.2001 3.60307 52.4119 3.60307L57.77 3.58656ZM77.3947 18.1705C79.4512 18.1774 81.3083 16.7733 82.0999 14.6129C82.4877 13.5573 82.5913 12.3995 82.3983 11.2799C82.2052 10.1603 81.7237 9.12683 81.0122 8.30485C80.3131 7.49636 79.4095 6.94233 78.4208 6.71595C77.4321 6.48956 76.4047 6.60149 75.4745 7.03692C73.5741 7.92805 72.3328 10.0362 72.329 12.3768C72.329 15.5672 74.5924 18.1554 77.3947 18.1705ZM77.396 3.18776C82.1619 3.18776 85.8053 7.35734 85.8053 12.3768C85.8053 17.3962 82.1619 21.5658 77.3947 21.5658C72.6288 21.5658 69.0163 17.4169 69.0163 12.3768C69.0163 7.33671 72.6611 3.18776 77.396 3.18776ZM97.3825 18.1705C100.186 18.1622 102.454 15.5714 102.452 12.3809C102.448 9.18772 100.175 6.60236 97.3726 6.60099C94.5678 6.60099 92.2932 9.18497 92.2895 12.3768C92.2895 13.9143 92.826 15.3885 93.7811 16.4749C94.2486 17.0103 94.8081 17.4362 95.4265 17.7274C96.0448 18.0187 96.7108 18.1693 97.3825 18.1705ZM97.3812 3.18776C102.132 3.18776 105.776 7.33671 105.776 12.3768C105.776 17.4169 102.117 21.5658 97.3812 21.5658C92.6463 21.5658 88.9719 17.4169 88.9719 12.3768C88.9719 7.33671 92.6153 3.18776 97.3812 3.18776ZM116.888 6.97779H113.463V11.6328H116.888C117.159 11.6461 117.429 11.5977 117.682 11.4906C117.935 11.3834 118.166 11.2198 118.36 11.0099C118.756 10.5835 118.982 9.99221 118.987 9.37062C118.997 9.05527 118.949 8.74094 118.847 8.44649C118.745 8.15204 118.59 7.88355 118.392 7.65713C118.198 7.43432 117.964 7.25913 117.705 7.14284C117.446 7.02655 117.168 6.97173 116.888 6.98191V6.97779ZM110.149 4.04175C110.149 3.79972 110.322 3.60307 110.534 3.60307H116.984C120.059 3.60307 122.284 6.1678 122.284 9.3885C122.307 11.5668 121.235 13.5677 119.525 14.5427L122.499 20.5289C122.54 20.5977 122.563 20.6779 122.566 20.7604C122.569 20.8429 122.551 20.9246 122.514 20.9965C122.478 21.0672 122.425 21.125 122.36 21.1631C122.296 21.2011 122.223 21.2178 122.15 21.211H119.539C119.467 21.2122 119.396 21.1906 119.334 21.1487C119.272 21.1069 119.222 21.0465 119.19 20.9745L116.323 15.0502H113.45V20.738C113.451 20.7948 113.442 20.8512 113.423 20.9041C113.404 20.9569 113.376 21.0051 113.34 21.0458C113.305 21.0866 113.262 21.1191 113.215 21.1416C113.168 21.164 113.118 21.1759 113.066 21.1767H110.552C110.5 21.1759 110.45 21.164 110.403 21.1416C110.356 21.1191 110.313 21.0866 110.277 21.0458C110.242 21.0051 110.214 20.9569 110.195 20.9041C110.176 20.8512 110.167 20.7948 110.167 20.738L110.15 4.04313L110.149 4.04175ZM130.921 7.0603V17.8776H133.349C133.969 17.8682 134.581 17.721 135.148 17.4447C135.716 17.1683 136.228 16.7684 136.654 16.2686C137.528 15.2434 138.007 13.8801 137.989 12.4689C138.008 11.7669 137.903 11.0674 137.678 10.4108C137.453 9.75421 137.114 9.15345 136.679 8.64315C136.251 8.14095 135.735 7.7415 135.162 7.46949C134.59 7.19748 133.973 7.05869 133.35 7.06168L130.921 7.0603ZM133.349 3.66495C137.877 3.66495 141.302 7.56362 141.302 12.4689C141.302 17.3742 137.877 21.2729 133.349 21.2729H128.007C127.956 21.2722 127.905 21.2603 127.858 21.2378C127.811 21.2154 127.769 21.1828 127.733 21.1421C127.697 21.1013 127.669 21.0531 127.65 21.0003C127.631 20.9475 127.622 20.8911 127.623 20.8342V4.12564C127.623 3.88223 127.795 3.68558 128.007 3.68558L133.349 3.66495ZM151.407 7.96655L149.527 13.7506H153.282L151.407 7.96655ZM148.425 17.0194L147.194 20.87C147.17 20.9606 147.119 21.0395 147.049 21.0943C146.98 21.149 146.896 21.1766 146.81 21.1725H144.142C144.074 21.1796 144.006 21.1662 143.944 21.1337C143.882 21.1013 143.829 21.0511 143.791 20.9882C143.752 20.9247 143.729 20.8511 143.723 20.7745C143.717 20.6979 143.729 20.6209 143.758 20.5509L149.524 3.85748C149.55 3.76945 149.602 3.69358 149.672 3.64145C149.741 3.58931 149.824 3.56376 149.908 3.56869H152.893C152.977 3.56345 153.06 3.58886 153.13 3.64102C153.199 3.69317 153.252 3.76921 153.279 3.85748L159.044 20.5509C159.073 20.621 159.085 20.698 159.079 20.7746C159.072 20.8513 159.049 20.9248 159.009 20.9882C158.971 21.0508 158.918 21.1008 158.857 21.133C158.795 21.1651 158.727 21.1783 158.659 21.1712H155.992C155.906 21.1752 155.822 21.1477 155.753 21.0929C155.683 21.0381 155.632 20.9592 155.608 20.8686L154.377 17.0181H148.425V17.0194ZM162.138 8.34198C162.138 5.57784 164.236 3.18776 167.55 3.18776C169.335 3.14352 171.063 3.88455 172.357 5.24917C172.396 5.29056 172.428 5.34044 172.449 5.39578C172.471 5.45111 172.482 5.51072 172.482 5.57097C172.482 5.63121 172.471 5.69083 172.449 5.74616C172.428 5.80149 172.396 5.85138 172.357 5.89276L170.879 7.56362C170.844 7.60421 170.801 7.63649 170.754 7.65854C170.708 7.68058 170.657 7.69194 170.606 7.69194C170.556 7.69194 170.505 7.68058 170.458 7.65854C170.412 7.63649 170.369 7.60421 170.334 7.56362C169.638 6.83934 168.723 6.42897 167.769 6.41259C166.444 6.41259 165.464 7.28858 165.464 8.29935C165.464 11.5668 173.297 9.68142 173.297 15.9688C173.293 19.1551 171.179 21.5658 167.44 21.5658C166.402 21.5776 165.372 21.3575 164.412 20.9186C163.452 20.4796 162.581 19.8308 161.851 19.0107C161.812 18.9693 161.781 18.9195 161.759 18.8641C161.738 18.8088 161.727 18.7492 161.727 18.6889C161.727 18.6287 161.738 18.5691 161.759 18.5137C161.781 18.4584 161.812 18.4085 161.851 18.3671L163.281 16.7389C163.317 16.6963 163.36 16.6624 163.408 16.6392C163.456 16.6159 163.507 16.6039 163.56 16.6039C163.612 16.6039 163.664 16.6159 163.712 16.6392C163.76 16.6624 163.803 16.6963 163.839 16.7389C164.738 17.7289 165.95 18.2912 167.217 18.3066C168.873 18.3066 169.965 17.3 169.965 16.0389C169.965 12.7701 162.135 14.6569 162.135 8.36811M187.502 4.01975V10.6262H180.872V4.01975C180.872 3.96304 180.863 3.90675 180.844 3.85408C180.825 3.80141 180.797 3.7534 180.761 3.71279C180.726 3.67218 180.683 3.63977 180.636 3.6174C180.589 3.59504 180.539 3.58316 180.488 3.58244H177.973C177.922 3.58316 177.871 3.59504 177.824 3.6174C177.777 3.63977 177.735 3.67218 177.699 3.71279C177.663 3.7534 177.635 3.80141 177.616 3.85408C177.597 3.90675 177.588 3.96304 177.589 4.01975V20.7105C177.589 20.9525 177.762 21.1491 177.973 21.1491H180.488C180.698 21.1491 180.872 20.9525 180.872 20.7105V13.9995H187.497V20.7105C187.497 20.9525 187.67 21.1491 187.881 21.1491H190.396C190.608 21.1491 190.78 20.9525 190.78 20.7105V4.01975C190.781 3.96304 190.771 3.90675 190.752 3.85408C190.733 3.80141 190.705 3.7534 190.67 3.71279C190.634 3.67218 190.591 3.63977 190.544 3.6174C190.497 3.59504 190.447 3.58316 190.396 3.58244H187.881C187.779 3.58532 187.682 3.63284 187.611 3.7147C187.54 3.79656 187.501 3.90616 187.502 4.01975ZM37.9111 5.81025C36.1668 2.221 32.7537 -0.0136888 29.0421 6.31078e-05H0.959668C0.77002 0.000917632 0.584791 0.0637006 0.427061 0.180589C0.269331 0.297478 0.146073 0.463304 0.0726462 0.657405C0.000292478 0.850262 -0.0185516 1.0627 0.0185275 1.26752C0.0556065 1.47234 0.146921 1.66021 0.280774 1.80707L6.39826 8.54551C6.9384 9.14234 7.67428 9.47651 8.43989 9.47651H28.2368C29.6479 9.46001 30.8013 10.7004 30.8161 12.2448C30.831 13.7891 29.6999 15.0543 28.2889 15.0694H14.6404C14.4506 15.0695 14.265 15.1316 14.1068 15.248C13.9486 15.3645 13.8248 15.53 13.7509 15.724C13.6778 15.9171 13.6585 16.13 13.6954 16.3354C13.7322 16.5408 13.8236 16.7292 13.9578 16.8764L20.079 23.6204C20.6225 24.2169 21.3563 24.551 22.1206 24.55H28.2938C36.3253 24.55 42.3982 15.1437 37.9111 5.80613" fill="#FF3008"/>
</svg>
