<svg width="166" height="30" viewBox="0 0 166 30" fill="none" xmlns="http://www.w3.org/2000/svg">
<path d="M34.0033 9.33314H36.3824V7.04762C36.3824 4.28699 37.9085 2.47656 40.9535 2.47656L42.4795 2.7645V5.52513L40.8599 5.23719C39.9061 5.23719 39.5282 5.81307 39.5282 6.76328V9.33314H42.5731V12.0938H39.5246V23.5214H36.4796V12.0938H34.0033V9.33314ZM50.2863 9.0488C54.1915 9.0488 57.7152 12.0938 57.7152 16.4777C57.7152 20.8616 54.2887 23.9029 50.2863 23.9029C46.284 23.9029 42.8611 20.858 42.8611 16.4777C42.8611 12.0002 46.3811 9.0488 50.2863 9.0488ZM50.2863 21.1423C53.1441 21.1423 54.6666 19.0475 54.6666 16.4777C54.6666 13.9078 53.1441 11.8094 50.2863 11.8094C47.4285 11.8094 45.906 13.9042 45.906 16.4777C45.906 18.9504 47.4321 21.1423 50.2863 21.1423ZM66.3822 9.0488C70.2874 9.0488 73.8075 12.0938 73.8075 16.4777C73.8075 20.8616 70.381 23.9029 66.3822 23.9029C62.3834 23.9029 58.9533 20.858 58.9533 16.4777C59.0469 12.0002 62.477 9.0488 66.3822 9.0488ZM66.3822 21.1423C69.2364 21.1423 70.7625 19.0475 70.7625 16.4777C70.7625 13.9078 69.2364 11.8094 66.3822 11.8094C63.528 11.8094 62.0019 13.9042 62.0019 16.4777C62.0019 18.9504 63.5244 21.1423 66.3822 21.1423ZM89.619 23.5214H86.8548L86.5668 22.2869L86.3797 22.0961L86.1889 22.2869C85.2351 23.2371 83.8098 23.8093 82.2837 23.8093C78.3785 23.8093 75.0492 20.7608 75.0492 16.3805C75.0492 12.0002 78.3785 8.95162 82.2837 8.95162C83.8098 8.95162 85.3323 9.5275 86.1889 10.4777L86.3797 10.6685L86.5704 10.4777V2.57374H89.619V23.5214ZM82.4745 11.7159C79.6167 11.7159 78.0942 13.8106 78.0942 16.3805C78.0942 18.9504 79.6167 21.0487 82.4745 21.0487C85.0479 21.0487 86.8548 18.9504 86.8548 16.3805C86.8548 13.9042 85.0479 11.7159 82.4745 11.7159ZM92.664 9.33314H95.4282L95.7125 10.5713L95.9033 10.762L96.0941 10.5713C97.0443 9.62108 98.4732 9.0488 99.9992 9.0488C103.901 9.0488 107.234 12.0938 107.234 16.4777C107.234 20.8616 103.901 23.9029 99.9992 23.9029C98.4732 23.9029 96.9507 23.3342 96.0941 22.3804L95.9033 22.1897L95.7125 22.3804V30.0001H92.7612V9.33314H92.664ZM99.7113 21.1423C102.569 21.1423 104.092 19.0475 104.092 16.4777C104.092 13.9078 102.569 11.8094 99.7113 11.8094C97.1414 11.8094 95.331 13.9042 95.331 16.4777C95.331 18.9504 97.1414 21.1423 99.7113 21.1423ZM114.76 14.6672H117.232V14.0014C117.232 12.2845 116.092 11.5251 114.472 11.5251C113.14 11.5251 112.284 12.191 111.808 13.4291L109.141 12.8568C109.71 10.4777 111.805 8.95162 114.569 8.95162C118.377 8.95162 120.281 10.8592 120.281 14.5701V23.4278H117.805L117.517 21.5202C116.567 22.9527 115.044 23.6186 113.043 23.6186C110.473 23.6186 108.663 22.0961 108.663 19.2383C108.569 16.4777 111.045 14.6672 114.76 14.6672ZM113.428 21.1423C114.378 21.1423 115.328 20.8544 115.998 20.1885C116.757 19.5226 117.139 18.666 117.139 17.525V17.2371H114.569C112.759 17.2371 111.618 18.0937 111.618 19.4291C111.618 20.3793 112.284 21.1423 113.424 21.1423H113.428ZM122.948 9.33314H125.709L125.997 10.5713L126.187 10.762L126.375 10.5713C126.95 9.62108 128.473 9.0488 129.711 9.0488C133.328 9.0488 135.423 11.4279 135.423 14.7608V23.5214H132.375V14.7608C132.281 12.8568 131.331 11.7159 129.33 11.7159C127.519 11.7159 126.09 13.1448 125.997 14.9552V23.5214H122.948V9.33314ZM151.706 23.5214H148.946L148.658 22.2869L148.47 22.0961L148.28 22.2869C147.326 23.2371 145.897 23.8093 144.374 23.8093C140.469 23.8093 137.14 20.7608 137.14 16.3805C137.14 12.0002 140.469 8.95162 144.374 8.95162C145.897 8.95162 147.423 9.5275 148.28 10.4777L148.47 10.6685L148.661 10.4777V2.57374H151.706V23.5214ZM144.659 11.7159C141.805 11.7159 140.279 13.8106 140.279 16.3805C140.279 18.9504 141.805 21.0487 144.659 21.0487C147.232 21.0487 149.043 18.9504 149.043 16.3805C149.043 13.9042 147.232 11.7159 144.659 11.7159ZM160.373 14.6672H162.849V14.0014C162.849 12.2845 161.708 11.5251 160.089 11.5251C158.757 11.5251 157.897 12.191 157.422 13.4291L154.758 12.8568C155.327 10.4777 157.422 8.95162 160.182 8.95162C163.994 8.95162 165.898 10.8592 165.898 14.5701V23.4278H163.422L163.134 21.5202C162.184 22.9527 160.658 23.6186 158.66 23.6186C156.086 23.6186 154.28 22.0961 154.28 19.2383C154.182 16.4777 156.565 14.6672 160.373 14.6672ZM159.041 21.1423C159.992 21.1423 160.945 20.8544 161.611 20.1885C162.374 19.5226 162.756 18.666 162.756 17.525V17.2371H160.182C158.372 17.2371 157.231 18.0937 157.231 19.4291C157.231 20.3793 157.897 21.1423 159.041 21.1423Z" fill="#D70F64"/>
<path d="M12.9405 19.0469C14.6573 19.0469 16.0862 17.8087 16.0862 16.2863H9.79834C9.79834 17.8087 11.1265 19.0469 12.9405 19.0469Z" fill="#D70F64"/>
<path d="M23.5215 5.90658C24.2845 5.33429 24.6661 4.38049 24.6661 3.33311C24.6661 1.4291 23.1436 0.00019696 21.236 0.00019696C20.0014 0.00019696 18.9504 0.572479 18.3818 1.52628C16.6611 0.690508 14.7696 0.266614 12.8569 0.288137C10.9481 0.292584 9.06353 0.715208 7.33565 1.52628C6.75977 0.568879 5.71598 0.00019696 4.47784 0.00019696C3.58196 -0.0094486 2.7186 0.33552 2.07604 0.959873C1.43348 1.58423 1.06385 2.43732 1.04775 3.33311C1.05572 3.81698 1.16119 4.29427 1.35785 4.73645C1.55451 5.17862 1.83832 5.5766 2.19231 5.90658C0.74607 8.0055 -0.0192139 10.4986 0.000366566 13.0475C0.00132009 16.4573 1.35604 19.7272 3.76679 22.1387C6.17755 24.5501 9.4471 25.9057 12.8569 25.9076C16.2661 25.9057 19.5351 24.5506 21.9457 22.1399C24.3564 19.7293 25.7115 16.4603 25.7134 13.0511C25.7134 10.3876 24.9504 7.90776 23.5215 5.91017V5.90658ZM12.9541 24.8567C6.47183 24.8567 1.14493 19.5226 1.14493 13.0511C1.14493 10.5712 1.90437 8.28568 3.14252 6.38168C4.29496 4.63925 5.91202 3.2541 7.81075 2.3829C9.33323 1.61986 11.1437 1.23834 12.9505 1.23834C14.7573 1.23834 16.5677 1.61986 18.0902 2.3829C19.9978 3.33311 21.5203 4.66843 22.7585 6.38168C23.9966 8.28928 24.756 10.5712 24.756 13.0475C24.756 19.5262 19.4255 24.8531 12.9505 24.8531L12.9541 24.8567Z" fill="#D70F64"/>
<path d="M12.9374 15.524C13.1318 15.6176 15.133 14.8581 15.133 13.9043C15.133 13.332 13.5133 13.2385 12.9374 13.2385C12.3615 13.2385 10.7491 13.332 10.7491 13.9043C10.6555 14.8581 12.7467 15.6176 12.9374 15.524ZM20.3663 7.52285C19.2253 6.76341 16.749 6.38189 15.7952 7.62003C15.7952 7.62003 14.5571 8.95175 15.7952 10.2835C17.0334 11.6152 17.89 12.9541 18.1779 14.0015C18.4659 15.1425 18.9374 15.524 19.7976 15.524C20.6578 15.524 22.3675 14.1923 22.6518 12.0003C22.7239 11.1154 22.5483 10.2279 22.1447 9.43714C21.741 8.64637 21.1252 7.98354 20.3663 7.52285ZM17.7964 10.2871C17.4149 10.2871 17.1306 9.99914 17.1306 9.62121C17.1306 9.24329 17.4185 8.95175 17.7964 8.95175C18.1743 8.95175 18.4623 9.23969 18.4623 9.62121C18.4623 10.0027 18.1743 10.2871 17.7964 10.2871ZM9.98604 7.62003C9.03583 6.38189 6.55954 6.76341 5.41498 7.52285C4.27042 8.28229 2.93869 9.80838 3.12945 12.0003C3.32021 14.1923 5.03706 15.524 5.98726 15.524C6.84389 15.524 7.31899 15.0489 7.60693 14.0015C7.89487 12.8569 8.84507 11.6188 9.98604 10.2871C11.2242 8.85817 9.98604 7.62003 9.98604 7.62003ZM8.17921 10.2835C7.79769 10.2835 7.50975 9.99914 7.50975 9.62121C7.50975 9.24329 7.79769 8.95175 8.17921 8.95175C8.56073 8.95175 8.84507 9.23969 8.84507 9.62121C8.84507 10.0027 8.55713 10.2835 8.17921 10.2835Z" fill="#D70F64"/>
</svg>
