<svg width="167" height="45" viewBox="0 0 167 45" fill="none" xmlns="http://www.w3.org/2000/svg">
<path d="M60.8066 33.4047H64.6049L63.9606 30.4542V12.921H60.3318V20.9246C59.2466 19.6698 57.7205 18.9237 55.957 18.9237C52.3283 18.9237 49.5135 21.942 49.5135 26.3168C49.5135 30.7255 52.3283 33.7099 55.957 33.7099C57.7544 33.7099 59.3144 32.9299 60.3997 31.6073L60.8066 33.4047ZM132.567 22.8576C133.313 22.8576 133.992 23.0611 134.602 23.502L136.332 19.6358C135.518 19.1271 134.602 18.9237 133.686 18.9237C132.059 18.9237 130.668 19.6698 129.82 21.0602L129.447 19.2628H125.717L126.327 22.0437V33.4386H129.956V24.3837C130.431 23.4341 131.346 22.8576 132.567 22.8576ZM143.182 29.9116C141.08 29.9116 139.52 28.5212 139.52 26.3507C139.52 24.1463 141.08 22.7898 143.182 22.7898C145.319 22.7898 146.845 24.1463 146.845 26.3507C146.845 28.4872 145.319 29.9116 143.182 29.9116ZM53.0405 26.3168C53.0405 24.1124 54.6005 22.7559 56.7031 22.7559C58.8397 22.7559 60.3658 24.1124 60.3658 26.3168C60.3658 28.4872 58.8397 29.8777 56.7031 29.8777C54.6005 29.9116 53.0405 28.4872 53.0405 26.3168ZM159.291 29.9116C157.188 29.9116 155.628 28.5212 155.628 26.3507C155.628 24.1463 157.188 22.7898 159.291 22.7898C161.428 22.7898 162.954 24.1463 162.954 26.3507C162.92 28.4872 161.394 29.9116 159.291 29.9116ZM73.4224 22.5524C75.2876 22.5524 76.5085 23.4341 76.9155 25.062H69.9293C70.3024 23.4002 71.5572 22.5524 73.4224 22.5524ZM116.798 22.5524C118.663 22.5524 119.884 23.4341 120.291 25.062H113.304C113.745 23.4002 114.966 22.5524 116.798 22.5524ZM99.0948 33.4047H104.928L108.726 19.195H104.758L102.011 30.7255L99.2304 19.2289H95.3304L99.0948 33.4047ZM89.7686 33.4047H93.3974V19.195H89.7686V33.4047ZM73.965 33.676C75.9998 33.676 77.9668 33.0995 79.6285 32.0481L78.2381 28.9281C76.9494 29.6403 75.4572 30.0133 73.9989 30.0133C72.0998 30.0133 70.7772 29.2672 70.1667 27.8768H80.4085C80.5103 27.3342 80.5781 26.8594 80.5781 26.215C80.5781 21.8063 77.5259 18.8898 73.4902 18.8898C69.3867 18.8898 66.4023 21.8741 66.4023 26.2829C66.3684 30.7933 69.3528 33.676 73.965 33.676ZM166.447 26.3168C166.447 21.908 163.395 18.9237 159.291 18.9237C155.154 18.9237 152.135 21.942 152.135 26.3168C152.135 30.6916 155.187 33.7099 159.291 33.7099C163.395 33.7099 166.447 30.7255 166.447 26.3168ZM117.306 33.7099C119.341 33.7099 121.308 33.1673 122.97 32.0821L121.579 28.962C120.291 29.6742 118.798 30.0473 117.34 30.0473C115.441 30.0473 114.118 29.3012 113.508 27.9107H123.75C123.852 27.3681 123.919 26.8933 123.919 26.2489C123.919 21.8402 120.867 18.9237 116.831 18.9237C112.728 18.9237 109.744 21.908 109.744 26.3168C109.744 30.8612 112.694 33.7099 117.306 33.7099ZM143.182 33.7099C147.32 33.7099 150.338 30.6916 150.338 26.3168C150.338 21.942 147.286 18.9237 143.182 18.9237C139.045 18.9237 136.026 21.942 136.026 26.3168C136.026 30.6916 139.045 33.7099 143.182 33.7099ZM82.8842 33.4047H86.5129V12.921H82.8842V33.4047ZM91.6 17.2619C92.8547 17.2619 93.8721 16.2445 93.8721 14.9558C93.8721 13.6671 92.8887 12.6497 91.6 12.6497C90.3112 12.6497 89.2938 13.6671 89.2938 14.9558C89.2938 16.2445 90.2773 17.2619 91.6 17.2619ZM29.2333 0L27.1646 19.6698L23.6376 3.08612L12.514 5.42614L16.0071 22.0098L0 25.4011L2.84872 38.6273L31.0307 44.63L37.4742 30.2168L40.5265 1.18697L29.2333 0ZM20.3141 28.5551C19.7376 29.0977 18.9915 29.0299 18.1436 28.7585C17.3297 28.4872 16.9906 27.5377 17.2619 26.3168C17.4993 25.435 18.5506 25.2994 19.1271 25.2994C19.3306 25.2994 19.5341 25.3333 19.7376 25.435C20.1106 25.6046 20.755 25.9776 20.8906 26.5203C21.0941 27.3342 20.8906 28.0125 20.3141 28.5551ZM28.4872 29.4368C28.0463 30.1829 26.9611 30.2846 25.842 29.742C25.0959 29.369 25.0959 28.4872 25.1976 27.9107C25.2315 27.6055 25.3672 27.3003 25.5707 27.0629C25.842 26.7237 26.2828 26.2829 26.7576 26.2829C27.6055 26.249 28.2837 26.622 28.6907 27.3003C29.0977 27.9785 28.8942 28.7246 28.4872 29.4368Z" fill="#00CCBC"/>
</svg>
