<svg width="151" height="31" viewBox="0 0 151 31" fill="none" xmlns="http://www.w3.org/2000/svg">
<path d="M18.0468 12.0744C19.8292 13.8653 21.287 16.7979 20.4527 18.5404C18.2219 23.1999 1.57561 31.3729 0.161962 29.9578C-1.25169 28.5442 6.92555 11.8922 11.5865 9.65995C13.329 8.82571 16.2616 10.2835 18.0539 12.0659C18.0525 12.0673 18.0511 12.0701 18.0468 12.0744Z" fill="#FF8200"/>
<path d="M26.8644 10.105C26.5754 9.03301 25.8365 7.94964 24.7332 7.82151C22.7103 7.58662 19.5228 11.1627 19.7506 12.0112C19.9784 12.8597 24.4827 14.3559 26.164 13.1473C27.0309 12.5237 27.1534 11.177 26.8686 10.105H26.8644ZM20.6047 0.198067C22.1067 0.60522 23.6257 1.64019 23.805 3.18623C24.1353 6.02207 19.1213 10.4922 17.9312 10.1733C16.7411 9.85443 14.6441 3.53929 16.3396 1.18036C17.2137 -0.0354055 19.1014 -0.206239 20.6062 0.192373C20.6047 0.192373 20.6047 0.19522 20.6047 0.198067Z" fill="#43B02A"/>
<path d="M65.3732 16.9803L63.8841 16.7539C62.4647 16.5446 61.6433 16.0848 61.6433 15.2491C61.6433 14.2896 62.7124 13.6946 64.2927 13.6946C65.4102 13.6946 66.3199 14.1131 67.1911 14.5573L67.3648 14.6455C67.5655 14.748 67.7819 14.7993 68.0054 14.7993C68.5222 14.7993 68.9991 14.5188 69.2483 14.0661L69.3693 13.8469C69.5615 13.4967 69.6027 13.0938 69.4846 12.7123C69.3664 12.3322 69.1059 12.0247 68.75 11.8467C67.4816 11.2118 66.1049 10.6409 64.2912 10.6409C60.5016 10.6409 58.0615 12.4703 58.0615 15.4157C58.0615 17.833 59.7983 19.3492 63.0869 19.7976L64.5888 19.9926C66.1761 20.2147 66.9477 20.6845 66.9477 21.4291C66.9477 22.1167 66.5761 23.0292 64.1176 23.0292C62.7623 23.0292 61.3856 22.6847 60.2681 21.9771C60.0446 21.8362 59.7883 21.7608 59.525 21.7608C59.0338 21.7608 58.5683 22.0213 58.3092 22.4398L58.2252 22.5751C58.0174 22.911 57.9547 23.3239 58.053 23.7068C58.1512 24.0898 58.3932 24.4058 58.7349 24.5966C60.6824 25.6913 62.9317 26.08 64.1161 26.08C68.0667 26.08 70.511 24.3489 70.511 21.3023C70.5153 18.868 68.7842 17.47 65.3732 16.9803ZM111.303 22.3017C111.019 21.9828 110.608 21.8006 110.181 21.8006C109.892 21.8006 109.611 21.8832 109.364 22.0384C108.56 22.548 107.68 22.8185 106.816 22.8185C104.443 22.8185 102.72 20.9436 102.72 18.3612C102.72 15.7787 104.443 13.9038 106.816 13.9038C107.727 13.9038 108.543 14.1515 109.309 14.6612C109.902 15.0555 110.754 14.9545 111.242 14.4334L111.369 14.2982C111.703 13.9423 111.861 13.4582 111.804 12.9728C111.749 12.4959 111.488 12.0702 111.091 11.8068C109.924 11.0324 108.477 10.6238 106.907 10.6238C102.352 10.6238 99.1698 13.8056 99.1698 18.3597C99.1698 22.9153 102.352 26.0971 106.907 26.0971C108.484 26.0971 109.939 25.68 111.115 24.8899C111.508 24.6265 111.767 24.2051 111.826 23.7325C111.885 23.257 111.736 22.7801 111.417 22.4242L111.303 22.3017ZM37.5828 5.39062C36.3969 5.39062 35.4688 6.33163 35.4688 7.53174C35.4688 8.73754 36.377 9.6458 37.5828 9.6458C38.7829 9.6458 39.7239 8.71761 39.7239 7.53174C39.7239 6.33163 38.7829 5.39062 37.5828 5.39062ZM38.222 10.7505H36.9749C36.3642 10.7505 35.8688 11.2459 35.8688 11.8567V24.6151C35.8688 25.2258 36.3642 25.7212 36.9749 25.7212H38.222C38.8328 25.7212 39.3282 25.2258 39.3282 24.6151V11.8567C39.3282 11.2459 38.8328 10.7505 38.222 10.7505ZM79.1694 22.7516C77.77 22.7459 76.1428 21.6497 76.1428 19.7293V13.9736H79.1794C79.7901 13.9736 80.2855 13.4782 80.2855 12.8674V11.8567C80.2855 11.2459 79.7901 10.7505 79.1794 10.7505H76.1428V7.42924C76.1428 6.81851 75.6474 6.32309 75.0367 6.32309H73.7213C73.1105 6.32309 72.6151 6.81851 72.6151 7.42924V19.5228C72.6151 23.005 75.2573 26.0828 78.916 26.0828H78.9174C79.2819 26.0828 79.6264 25.9405 79.8869 25.68C80.146 25.4209 80.2898 25.0763 80.2898 24.7105V23.8577C80.287 23.2442 79.7844 22.7544 79.1694 22.7516ZM48.9461 10.6253C44.5187 10.6253 42.0487 14.1672 42.0487 17.1966V24.6151C42.0487 25.2258 42.5441 25.7212 43.1548 25.7212H44.4162C45.0269 25.7212 45.5223 25.2258 45.5223 24.6151V17.7533C45.5223 15.4556 46.9146 13.9337 48.9447 13.9337C50.9748 13.9337 52.367 15.4556 52.367 17.7533V24.6151C52.367 25.2258 52.8625 25.7212 53.4732 25.7212H54.7345C55.3452 25.7212 55.8407 25.2258 55.8407 24.6151V17.1966C55.8435 14.1658 53.375 10.6253 48.9461 10.6253ZM140.025 10.779C139.545 10.6737 138.342 10.6253 137.718 10.6253C137.663 10.6253 137.607 10.6267 137.553 10.6267C134.125 10.6267 130.959 13.4212 130.959 17.2735C130.959 17.2764 130.958 17.2806 130.958 17.2835V24.6151C130.958 25.2258 131.453 25.7212 132.064 25.7212H133.325C133.936 25.7212 134.431 25.2258 134.431 24.6151V17.4002C134.431 15.3032 135.929 13.9352 137.764 13.9352C138.1 13.9408 138.46 13.9779 138.813 14.0476C138.91 14.0661 139.007 14.0761 139.105 14.0761C139.805 14.0761 140.412 13.5921 140.576 12.9116C140.665 12.5372 140.732 12.2596 140.795 12.0047C140.857 11.7499 140.815 11.4623 140.67 11.2289C140.523 10.9982 140.294 10.8374 140.025 10.779ZM149.277 13.9736C149.887 13.9736 150.383 13.4782 150.383 12.8674V11.8567C150.383 11.2459 149.887 10.7505 149.277 10.7505H146.24V7.42924C146.24 6.81851 145.745 6.32309 145.133 6.32309H143.817C143.206 6.32309 142.711 6.81851 142.711 7.42924V19.5228C142.711 23.005 145.353 26.0828 149.012 26.0828H149.013C149.379 26.0828 149.722 25.9405 149.983 25.68C150.242 25.4209 150.386 25.0763 150.386 24.7105V23.8577C150.386 23.2427 149.883 22.753 149.268 22.7516C147.869 22.7459 146.242 21.6497 146.242 19.7293V13.9736H149.277ZM125.201 11.8125C125.199 11.8111 125.196 11.8097 125.195 11.8083C124.027 11.0338 122.581 10.6253 121.011 10.6253C120.984 10.6253 120.957 10.6267 120.93 10.6267C120.903 10.6267 120.876 10.6253 120.849 10.6253C119.278 10.6253 117.83 11.0338 116.665 11.8083C116.663 11.8097 116.66 11.8111 116.659 11.8125C114.558 13.1351 113.275 15.4712 113.275 18.3626C113.275 21.3906 114.683 23.8108 116.964 25.0934C118.027 25.7212 119.29 26.0957 120.651 26.0971C123.136 26.0985 124.638 24.6905 125.109 24.0755V24.6051C125.109 25.2159 125.605 25.7113 126.216 25.7113H127.477C128.088 25.7113 128.583 25.2159 128.583 24.6051V18.3612C128.584 15.4698 127.302 13.1337 125.201 11.8125ZM122.319 22.5864C121.915 22.7203 121.503 22.7971 121.095 22.8142C121.065 22.8157 121.035 22.8156 121.005 22.8171C120.98 22.8171 120.955 22.8185 120.93 22.8185C120.904 22.8185 120.88 22.8171 120.854 22.8171C120.824 22.8171 120.794 22.8157 120.765 22.8142C120.356 22.7971 119.943 22.7203 119.54 22.5864C117.909 22.0099 116.825 20.4097 116.825 18.3612C116.825 15.9439 118.336 14.1458 120.476 13.9266C120.487 13.9252 120.498 13.9252 120.51 13.9238C120.558 13.9195 120.607 13.9152 120.656 13.9124C120.683 13.9109 120.712 13.9095 120.739 13.9081C120.786 13.9067 120.834 13.9053 120.881 13.9053C120.898 13.9053 120.914 13.9038 120.931 13.9038C120.948 13.9038 120.964 13.9038 120.981 13.9053C121.029 13.9053 121.076 13.9067 121.123 13.9081C121.152 13.9095 121.179 13.9109 121.206 13.9124C121.254 13.9152 121.304 13.9181 121.353 13.9238C121.364 13.9252 121.375 13.9252 121.387 13.9266C123.526 14.1458 125.037 15.9424 125.037 18.3612C125.034 20.4083 123.951 22.0099 122.319 22.5864ZM93.7116 11.8125C93.7102 11.8111 93.7074 11.8097 93.7059 11.8083C92.5386 11.0338 91.0922 10.6253 89.5219 10.6253C89.4949 10.6253 89.4678 10.6267 89.4408 10.6267C89.4137 10.6267 89.3867 10.6253 89.3596 10.6253C87.7894 10.6253 86.3416 11.0338 85.1756 11.8083C85.1742 11.8097 85.1714 11.8111 85.17 11.8125C83.0687 13.1351 81.786 15.4712 81.786 18.3626C81.786 21.3906 83.194 23.8108 85.4746 25.0934C86.538 25.7212 87.8008 26.0957 89.1618 26.0971C91.6474 26.0985 93.1493 24.6905 93.6205 24.0755V24.6051C93.6205 25.2159 94.1159 25.7113 94.7267 25.7113H95.988C96.5987 25.7113 97.0941 25.2159 97.0941 24.6051V18.3612C97.0956 15.4698 95.8129 13.1337 93.7116 11.8125ZM90.8302 22.5864C90.4259 22.7203 90.0145 22.7971 89.6059 22.8142C89.576 22.8157 89.5461 22.8156 89.5162 22.8171C89.4906 22.8171 89.4664 22.8185 89.4408 22.8185C89.4152 22.8185 89.391 22.8171 89.3653 22.8171C89.3354 22.8171 89.3055 22.8157 89.2757 22.8142C88.8671 22.7971 88.4542 22.7203 88.0513 22.5864C86.4199 22.0099 85.3365 20.4097 85.3365 18.3612C85.3365 15.9439 86.847 14.1458 88.9867 13.9266C88.9981 13.9252 89.0094 13.9252 89.0208 13.9238C89.0692 13.9195 89.1176 13.9152 89.1675 13.9124C89.1945 13.9109 89.223 13.9095 89.25 13.9081C89.297 13.9067 89.3454 13.9053 89.3924 13.9053C89.4095 13.9053 89.4251 13.9038 89.4422 13.9038C89.4593 13.9038 89.475 13.9038 89.492 13.9053C89.5404 13.9053 89.5874 13.9067 89.6344 13.9081C89.6629 13.9095 89.6899 13.9109 89.717 13.9124C89.7654 13.9152 89.8152 13.9181 89.8636 13.9238C89.875 13.9252 89.8864 13.9252 89.8978 13.9266C92.0375 14.1458 93.5479 15.9424 93.5479 18.3612C93.5451 20.4083 92.4617 22.0099 90.8302 22.5864Z" fill="#43B02A"/>
</svg>
