<svg width="138" height="25" viewBox="0 0 138 25" fill="none" xmlns="http://www.w3.org/2000/svg">
<path d="M42.6061 1.17561C44.0001 0.318793 45.6607 -0.0200934 47.2821 0.000915946C49.721 0.0876939 52.1498 0.724357 54.2974 1.88901C52.9272 3.10755 51.4803 4.24024 50.0891 5.4396C49.1756 5.2222 48.2321 4.87326 47.2849 5.09066C46.6518 5.23042 46.0087 5.53369 45.637 6.09089C45.2643 6.64353 45.3109 7.44189 45.7649 7.93607C46.302 8.5426 47.0958 8.81573 47.8393 9.07058C49.4881 9.58942 51.2209 9.97581 52.6769 10.9523C53.6433 11.5789 54.4518 12.4787 54.8573 13.5629C55.2556 14.5723 55.3095 15.6821 55.2291 16.7545C55.146 18.1923 54.787 19.6502 53.9777 20.8587C53.1391 22.1265 51.8091 22.9861 50.417 23.5378C47.4666 24.6541 44.1179 24.4138 41.2222 23.2464C40.1674 22.8227 39.1648 22.279 38.2344 21.626C39.2532 20.2239 40.2873 18.8329 41.3364 17.4533C42.6116 18.0352 43.9042 18.5878 45.2415 19.0053C46.144 19.3213 47.1798 19.1797 47.9955 18.6947C48.6194 18.333 49.0304 17.6369 49.0195 16.9126C49.0551 16.306 48.6851 15.7552 48.2165 15.4063C47.251 14.6901 46.0462 14.4472 44.9171 14.1064C43.483 13.6716 41.985 13.225 40.8258 12.2311C39.8767 11.4282 39.3689 10.2151 39.2264 9.00206C39.0692 7.53323 39.1514 6.00503 39.7096 4.62206C40.2648 3.18302 41.2841 1.97024 42.6061 1.17561ZM7.73056 0.583699C9.67803 0.585526 11.6255 0.583698 13.573 0.585525V13.9858C13.573 15.4227 13.6598 16.876 13.3921 18.2983C13.1318 19.7159 12.5444 21.1062 11.5323 22.153C10.4271 23.3149 8.86231 23.9544 7.28844 24.138C6.14662 24.2686 4.96369 24.2686 3.86115 23.9078C2.24069 23.4108 0.909798 22.2279 0 20.823C1.14821 19.6054 2.3092 18.4024 3.4565 17.1838C3.89222 17.7548 4.35625 18.3156 4.92898 18.7577C5.31629 19.0519 5.8214 19.2428 6.30736 19.0985C6.82072 19.0035 7.23725 18.6043 7.42542 18.1274C7.66474 17.5401 7.7223 16.897 7.72961 16.2695L7.73056 0.583699ZM16.7317 0.593734C18.6782 0.586427 20.6257 0.574556 22.5723 0.586431C22.5824 4.2649 22.5732 7.94704 22.5759 11.6264C22.5823 13.0432 22.5193 14.481 22.8582 15.8703C23.0793 16.8029 23.5305 17.7374 24.3362 18.3001C25.2341 18.9331 26.3905 19.0455 27.4565 18.9432C28.3709 18.8491 29.2908 18.4462 29.8489 17.6954C30.3312 17.0669 30.575 16.2942 30.7093 15.5232C30.8637 14.6134 30.8975 13.6863 30.8957 12.7637C30.8948 8.7052 30.8975 4.64308 30.8947 0.583699C32.8413 0.578218 34.7888 0.583686 36.7372 0.581859C36.739 5.10436 36.7372 9.62779 36.7381 14.1503C36.7345 15.6849 36.6924 17.2469 36.2366 18.7239C35.8333 20.0591 35.0357 21.2411 33.9484 22.1147C32.6687 23.1505 31.0738 23.7178 29.4698 24.0073C27.673 24.3179 25.8215 24.3106 24.0275 23.9845C22.4399 23.684 20.8632 23.1039 19.6026 22.0662C18.9367 21.5063 18.3521 20.8395 17.9255 20.0795C17.1646 18.7559 16.8833 17.2195 16.791 15.7132C16.7097 14.5449 16.7408 13.3729 16.7344 12.201C16.7317 8.33343 16.7326 4.46403 16.7317 0.593734ZM55.2776 0.585525C61.605 0.583698 67.9325 0.585525 74.2572 0.585525C74.2782 2.29277 74.2937 4.00183 74.2481 5.70907L67.6996 5.70815C67.6914 11.7853 67.7087 17.8625 67.705 23.9397C65.7567 23.9443 63.8073 23.9398 61.8608 23.9425C61.8315 17.8662 61.8553 11.7872 61.848 5.70999C59.6612 5.70908 57.4753 5.7045 55.2903 5.71272C55.262 4.00365 55.2867 2.29459 55.2776 0.585525ZM81.6196 0.585525C86.4463 0.583698 91.273 0.583698 96.1015 0.585525L96.1006 5.6972C93.2232 5.72734 90.345 5.70085 87.4676 5.7109C87.4676 7.0354 87.4648 8.359 87.4685 9.68534C89.8626 9.71731 92.2577 9.69262 94.6528 9.70176C94.6455 11.4236 94.6656 13.1464 94.6427 14.8682C94.1202 14.9358 93.574 14.8774 93.0424 14.8966C91.1835 14.8966 89.3255 14.8947 87.4666 14.8966C87.4703 16.2028 87.4612 17.5063 87.4722 18.8125C90.3477 18.8098 93.225 18.8125 96.1015 18.8107C96.1006 20.5207 96.1024 22.2325 96.0997 23.9434H81.6187L81.6196 0.585525ZM106.097 0.591908C108.24 0.593735 110.382 0.59008 112.524 0.593734C115.457 8.37726 118.371 16.1635 121.307 23.9434C119.157 23.9543 117.007 23.9443 114.857 23.9489C114.358 22.6131 113.864 21.2758 113.374 19.937C110.609 19.927 107.843 19.9306 105.078 19.9352C104.549 21.2743 104.012 22.6098 103.485 23.9489C101.351 23.9297 99.2155 23.948 97.0826 23.937C100.09 16.1562 103.088 8.37269 106.097 0.591908ZM118.318 0.589176C124.65 0.578215 130.982 0.585525 137.314 0.585525C137.31 2.29368 137.318 4.00091 137.31 5.70815C135.121 5.70632 132.931 5.71364 130.741 5.70542C130.72 11.7835 130.762 17.8644 130.745 23.9425C128.794 23.9388 126.845 23.9452 124.896 23.9388C124.878 17.8625 124.894 11.7854 124.888 5.70907C122.812 5.70907 120.734 5.70633 118.658 5.7109C118.541 5.70993 118.424 5.69335 118.31 5.66157C118.328 3.97168 118.309 2.27906 118.318 0.589176Z" fill="#FF3131"/>
<path d="M108.146 6.1095C109.903 8.99144 111.68 11.8615 113.432 14.7462C112.5 14.7234 111.566 14.6594 110.634 14.6484C110.82 15.6076 111.019 16.563 111.213 17.5194C110.717 17.6153 110.226 17.7514 109.723 17.8044C109.546 16.849 109.342 15.898 109.15 14.9453C108.296 15.308 107.472 15.7373 106.621 16.1082C106.845 14.3671 107.147 12.6352 107.401 10.8969C107.654 9.30201 107.879 7.70347 108.146 6.1095Z" fill="white"/>
</svg>
