<svg width="16" height="16" viewBox="0 0 16 16" fill="none" xmlns="http://www.w3.org/2000/svg">
<path d="M5.65131 8.79099L9.41881 5.02349M5.96529 5.33745H5.97157M9.10487 8.47704H9.11115M11.9305 13.1864V3.13974C11.9305 2.44617 11.3682 1.88391 10.6746 1.88391H4.39548C3.7019 1.88391 3.13965 2.44617 3.13965 3.13974V13.1864L5.33736 11.9306L7.53506 13.1864L9.73277 11.9306L11.9305 13.1864ZM6.27923 5.33745C6.27923 5.51085 6.13867 5.65141 5.96527 5.65141C5.79188 5.65141 5.65131 5.51085 5.65131 5.33745C5.65131 5.16406 5.79188 5.02349 5.96527 5.02349C6.13867 5.02349 6.27923 5.16406 6.27923 5.33745ZM9.41881 8.47704C9.41881 8.65043 9.27825 8.79099 9.10486 8.79099C8.93146 8.79099 8.7909 8.65043 8.7909 8.47704C8.7909 8.30364 8.93146 8.16308 9.10486 8.16308C9.27825 8.16308 9.41881 8.30364 9.41881 8.47704Z" stroke="white" stroke-width="1.5" stroke-linecap="round" stroke-linejoin="round"/>
</svg>
