<svg width="48" height="50" viewBox="0 0 48 50" fill="none" xmlns="http://www.w3.org/2000/svg">
<rect width="48" height="50" fill="#F5F5F5"/>
<g id="Homepage" clip-path="url(#clip0_0_1)">
<rect width="1600" height="6857" transform="translate(-281 -1178)" fill="white"/>
<g id="Menu">
<rect id="bg" x="-281" y="-282" width="1600" height="712" fill="white"/>
<g id="content">
<g id="card">
<g id="1">
<rect id="bg_2" x="-128.25" y="-64.25" width="304.5" height="373.5" rx="11.25" fill="white" stroke="#DBDFD0" stroke-width="1.5"/>
<g id="text">
<g id="icon">
<circle id="Ellipse 42" opacity="0.07" cx="24" cy="25" r="50" fill="#4D592B"/>
<g id="tea 1" clip-path="url(#clip1_0_1)">
<g id="Group">
<path id="Vector" d="M20 3V10" stroke="#474747" stroke-width="5" stroke-linecap="round" stroke-linejoin="round"/>
<path id="Vector_2" d="M10 5V12" stroke="#474747" stroke-width="5" stroke-linecap="round" stroke-linejoin="round"/>
<path id="Vector_3" d="M30 5V12" stroke="#474747" stroke-width="5" stroke-linecap="round" stroke-linejoin="round"/>
<path id="Vector_4" d="M37 23H45V31C45 33.209 43.209 35 41 35H37" stroke="#474747" stroke-width="5" stroke-linecap="round" stroke-linejoin="round"/>
<path id="Vector_5" d="M25 47H15C8.373 47 3 41.627 3 35V19H37V35C37 41.627 31.627 47 25 47Z" stroke="#474747" stroke-width="5" stroke-linecap="round" stroke-linejoin="round"/>
<path id="Vector_6" d="M28 27H18V37H28V27Z" stroke="#474747" stroke-width="5" stroke-linecap="round" stroke-linejoin="round"/>
<path id="Vector_7" d="M23 19V27" stroke="#474747" stroke-width="5" stroke-linecap="round" stroke-linejoin="round"/>
</g>
</g>
</g>
</g>
</g>
</g>
</g>
</g>
</g>
<defs>
<clipPath id="clip0_0_1">
<rect width="1600" height="6857" fill="white" transform="translate(-281 -1178)"/>
</clipPath>
<clipPath id="clip1_0_1">
<rect width="48" height="50" fill="white"/>
</clipPath>
</defs>
</svg>
