<svg width="281" height="55" viewBox="0 0 281 55" fill="none" xmlns="http://www.w3.org/2000/svg">
<g clip-path="url(#clip0_10_925)">
<path d="M48.1694 0.803952C47.8608 0.62592 47.493 0.57519 47.1464 0.662861C46.7999 0.750533 46.5028 0.969467 46.3202 1.27175L36.6488 17.3632C36.5992 17.4466 36.5592 17.5352 36.5294 17.6273C35.4473 18.0213 34.4373 18.5849 33.5386 19.296C30.6082 14.4065 25.2389 11.3277 19.3731 11.3277C10.322 11.3277 2.95955 18.5484 2.93432 27.4318H0.800781L0.99155 28.9241C2.1017 37.5971 7.54786 45.1726 15.3786 49.1616V54.2827H35.5842C38.1454 54.2827 40.2291 52.2344 40.2291 49.7183V49.1623C48.0623 45.1714 53.506 37.5959 54.6186 28.9241L54.8094 27.4306H50.9565C50.9386 22.8964 47.978 19.0416 43.8599 17.5862L55.9263 6.18186C56.4629 5.67478 56.4802 4.83467 55.962 4.30763C55.8392 4.18216 55.6925 4.08167 55.5302 4.0119C55.3678 3.94214 55.1931 3.90447 55.0159 3.90104C54.8388 3.89762 54.6627 3.92851 54.4977 3.99195C54.3327 4.05539 54.182 4.15013 54.0543 4.27077L40.6131 16.9764C40.4925 16.9715 40.3725 16.9582 40.25 16.9582C40.1725 16.9582 40.098 16.9691 40.0217 16.9703L48.6457 2.62016C48.7359 2.47019 48.7951 2.30425 48.8199 2.13181C48.8448 1.95937 48.8348 1.78381 48.7906 1.61516C48.7464 1.4465 48.6687 1.28806 48.5621 1.14887C48.4556 1.00968 48.3221 0.892478 48.1694 0.803952ZM19.3725 13.9804C24.5399 13.9804 29.25 16.8374 31.5928 21.3135C30.7387 22.4673 30.1331 23.78 29.8131 25.1714C28.7392 20.4764 24.4697 16.957 19.3725 16.957C13.4851 16.957 8.69555 21.652 8.67032 27.4312H5.63524C5.65986 20.011 11.8112 13.9804 19.3725 13.9804ZM19.3725 22.5936C16.6463 22.5936 14.4279 24.7604 14.4026 27.4312H11.3719C11.3971 23.1146 14.9743 19.6103 19.3725 19.6103C23.7719 19.6103 27.3528 23.1146 27.3755 27.4312H24.3411C24.3171 24.7604 22.0986 22.5936 19.3725 22.5936ZM21.6383 27.4318H17.1066C17.1187 26.8488 17.3627 26.2936 17.7865 25.8851C18.2102 25.4766 18.78 25.2473 19.3737 25.2463C19.9672 25.2475 20.5366 25.4769 20.9599 25.8854C21.3832 26.2939 21.6267 26.8491 21.6383 27.4318ZM51.6974 30.0845C50.1965 37.793 44.874 44.3646 37.4974 47.5123H33.1743V50.1656H37.4685C37.3674 50.5819 37.1266 50.9526 36.7849 51.2183C36.4433 51.4839 36.0205 51.6289 35.5848 51.63H18.0802V50.1656H23.1442V47.5123H18.1128C10.7362 44.3664 5.41309 37.793 3.91094 30.0845H51.6974ZM37.9848 27.4318C37.9967 26.849 38.2404 26.294 38.6638 25.8855C39.0872 25.4771 39.6565 25.2476 40.25 25.2463C40.844 25.2468 41.4142 25.4759 41.8382 25.8845C42.2623 26.293 42.5064 26.8485 42.5183 27.4318H37.9848ZM40.25 19.6109C44.6512 19.6109 48.2334 23.1152 48.2568 27.4318H45.2205C45.1959 24.761 42.9768 22.5942 40.25 22.5942C37.5239 22.5942 35.3072 24.761 35.2826 27.4318H32.2494C32.274 23.1152 35.8512 19.6109 40.25 19.6109Z" fill="#AD343E"/>
<path d="M39.6741 42.9139C39.8901 42.9139 40.1086 42.8637 40.3098 42.7568C41.9591 41.8897 43.4065 40.6947 44.5598 39.248C45.7131 37.8012 46.5469 36.1345 47.0082 34.3539C47.0524 34.1848 47.0622 34.0088 47.037 33.8361C47.0118 33.6633 46.9522 33.4971 46.8614 33.347C46.7707 33.1969 46.6507 33.0659 46.5083 32.9615C46.3659 32.8571 46.2039 32.7813 46.0316 32.7385C45.8593 32.6957 45.6801 32.6867 45.5043 32.7121C45.3285 32.7374 45.1595 32.7967 45.007 32.8863C44.8545 32.976 44.7215 33.0943 44.6157 33.2346C44.5099 33.3748 44.4334 33.5342 44.3904 33.7035C44.0221 35.1266 43.356 36.4588 42.4345 37.6151C41.5131 38.7714 40.3565 39.7265 39.0384 40.4196C38.7726 40.5585 38.5618 40.7808 38.4395 41.051C38.3172 41.3213 38.2905 41.6239 38.3636 41.9108C38.4367 42.1976 38.6054 42.4522 38.8429 42.634C39.0804 42.8158 39.373 42.9143 39.6741 42.9139Z" fill="#474747"/>
<path d="M36.4059 45.0064C37.2903 45.0064 38.0072 44.3023 38.0072 43.4337C38.0072 42.5652 37.2903 41.8611 36.4059 41.8611C35.5216 41.8611 34.8047 42.5652 34.8047 43.4337C34.8047 44.3023 35.5216 45.0064 36.4059 45.0064Z" fill="#474747"/>
</g>
<path d="M88.7228 13.8347C91.8517 13.8347 94.1273 14.3467 95.5495 15.3707C96.9717 16.3662 97.6828 17.7173 97.6828 19.424C97.6828 20.9031 97.2135 22.24 96.2748 23.4347C95.3646 24.6293 94.1131 25.6391 92.5202 26.464C90.9273 27.2604 89.1211 27.8151 87.1015 28.128C90.1166 28.3556 92.3211 29.0951 93.7148 30.3467C95.1371 31.5982 95.8482 33.0916 95.8482 34.8267C95.8482 36.3627 95.4784 37.6996 94.7388 38.8373C94.0277 39.9751 93.0464 40.928 91.7948 41.696C90.5717 42.464 89.1353 43.0471 87.4855 43.4453C85.8357 43.8151 84.0864 44 82.2375 44C81.2704 44 80.2037 43.9858 79.0375 43.9573C77.8997 43.9004 76.4917 43.872 74.8135 43.872C74.1024 43.872 73.3628 43.8862 72.5948 43.9147C71.8268 43.9147 71.1015 43.9289 70.4188 43.9573C69.7362 43.9573 69.1531 43.9716 68.6695 44L68.8402 43.1467C69.8073 43.0898 70.5611 42.976 71.1015 42.8053C71.6419 42.6347 72.0686 42.2933 72.3815 41.7813C72.6944 41.2693 72.9788 40.5013 73.2348 39.4773L78.8668 18.3147C79.0659 17.4613 79.1797 16.7787 79.2082 16.2667C79.2366 15.7262 79.0375 15.328 78.6108 15.072C78.2126 14.7876 77.4588 14.6453 76.3495 14.6453L76.5628 13.792C77.0464 13.8204 77.6153 13.8489 78.2695 13.8773C78.9522 13.8773 79.6775 13.8916 80.4455 13.92C81.2135 13.92 81.9246 13.92 82.5788 13.92C83.8019 13.92 84.8828 13.9058 85.8215 13.8773C86.7886 13.8489 87.7557 13.8347 88.7228 13.8347ZM80.7442 28.6827L80.9148 27.9573H84.0722C85.6935 27.9573 87.0731 27.5449 88.2108 26.72C89.3771 25.8667 90.2588 24.7573 90.8562 23.392C91.4819 22.0267 91.7948 20.5902 91.7948 19.0827C91.7948 17.6604 91.5104 16.5653 90.9415 15.7973C90.4011 15.0293 89.4482 14.6453 88.0828 14.6453C87.0873 14.6453 86.3762 14.8444 85.9495 15.2427C85.5228 15.6124 85.1531 16.4231 84.8402 17.6747L79.0802 39.4773C78.9095 40.1884 78.7957 40.8142 78.7388 41.3547C78.7104 41.8951 78.8526 42.3076 79.1655 42.592C79.4784 42.8764 80.0615 43.0187 80.9148 43.0187C82.9344 43.0187 84.5842 42.6347 85.8642 41.8667C87.1442 41.0987 88.0971 40.0462 88.7228 38.7093C89.3486 37.344 89.6615 35.808 89.6615 34.1013C89.6615 33.0489 89.4766 32.1244 89.1068 31.328C88.7655 30.5031 88.2108 29.8631 87.4428 29.408C86.6748 28.9244 85.6508 28.6827 84.3708 28.6827H80.7442ZM105.948 14.6453C106.033 13.5929 106.46 12.7538 107.228 12.128C107.996 11.5022 108.892 11.1893 109.916 11.1893C110.854 11.1893 111.566 11.4596 112.049 12C112.561 12.512 112.774 13.1804 112.689 14.0053C112.604 14.9724 112.177 15.7831 111.409 16.4373C110.641 17.0916 109.745 17.4187 108.721 17.4187C107.782 17.4187 107.057 17.1627 106.545 16.6507C106.062 16.1102 105.862 15.4418 105.948 14.6453ZM104.454 25.6107C104.966 24.0747 104.796 23.3067 103.942 23.3067C103.374 23.3067 102.862 23.6053 102.406 24.2027C101.951 24.7716 101.468 25.696 100.956 26.976L100.23 28.9813H99.4198L100.529 25.7813C100.956 24.6436 101.468 23.7618 102.065 23.136C102.662 22.4818 103.331 22.0267 104.07 21.7707C104.81 21.5147 105.535 21.3867 106.246 21.3867C107.242 21.3867 107.996 21.5716 108.508 21.9413C109.02 22.3111 109.361 22.7947 109.532 23.392C109.702 23.9893 109.745 24.6436 109.66 25.3547C109.574 26.0373 109.418 26.7058 109.19 27.36L104.668 40.3733C104.412 41.1413 104.341 41.7244 104.454 42.1227C104.568 42.4924 104.838 42.6773 105.265 42.6773C105.72 42.6773 106.175 42.4356 106.63 41.952C107.114 41.44 107.626 40.4587 108.166 39.008L108.892 37.088H109.702L108.636 40.2027C108.209 41.3404 107.697 42.2364 107.1 42.8907C106.502 43.5164 105.848 43.9573 105.137 44.2133C104.426 44.4693 103.729 44.5973 103.046 44.5973C101.795 44.5973 100.885 44.3271 100.316 43.7867C99.7469 43.2178 99.4625 42.4498 99.4625 41.4827C99.4625 40.4871 99.6901 39.3493 100.145 38.0693L104.454 25.6107ZM114.269 43.36C114.497 43.4738 114.738 43.5733 114.994 43.6587C115.25 43.7156 115.606 43.744 116.061 43.744C117.142 43.744 118.038 43.4027 118.749 42.72C119.489 42.0089 119.858 41.0276 119.858 39.776C119.858 38.8658 119.659 37.9413 119.261 37.0027C118.891 36.064 118.322 35.0258 117.554 33.888C116.872 32.8924 116.246 31.9111 115.677 30.944C115.137 29.9769 114.866 28.8676 114.866 27.616C114.866 26.3929 115.165 25.3262 115.762 24.416C116.36 23.4773 117.213 22.7378 118.322 22.1973C119.432 21.6569 120.726 21.3867 122.205 21.3867C123.172 21.3867 124.125 21.5004 125.064 21.728C126.002 21.9556 126.77 22.368 127.368 22.9653C127.965 23.5627 128.264 24.4302 128.264 25.568C128.264 25.9662 128.178 26.3929 128.008 26.848C127.837 27.2747 127.581 27.6444 127.24 27.9573C126.898 28.2702 126.443 28.4267 125.874 28.4267C125.277 28.4267 124.779 28.1991 124.381 27.744C123.983 27.2604 123.784 26.6489 123.784 25.9093C123.784 25.2551 123.898 24.6436 124.125 24.0747C124.381 23.5058 124.68 23.008 125.021 22.5813C124.623 22.3538 124.054 22.24 123.314 22.24C122.29 22.24 121.466 22.5671 120.84 23.2213C120.214 23.8756 119.901 24.8 119.901 25.9947C119.901 26.6204 120.001 27.2178 120.2 27.7867C120.427 28.3271 120.726 28.896 121.096 29.4933C121.494 30.0622 121.935 30.7307 122.418 31.4987C123.215 32.7787 123.841 33.9307 124.296 34.9547C124.751 35.9502 124.978 36.9742 124.978 38.0267C124.978 39.2782 124.637 40.4018 123.954 41.3973C123.3 42.3929 122.39 43.1751 121.224 43.744C120.058 44.3129 118.692 44.5973 117.128 44.5973C116.018 44.5973 114.952 44.4409 113.928 44.128C112.932 43.8436 112.107 43.36 111.453 42.6773C110.827 41.9947 110.514 41.056 110.514 39.8613C110.514 39.2071 110.699 38.6098 111.069 38.0693C111.41 37.5004 111.951 37.216 112.69 37.216C113.43 37.216 113.985 37.5147 114.354 38.112C114.724 38.7093 114.909 39.4489 114.909 40.3307C114.909 40.9564 114.824 41.5396 114.653 42.08C114.511 42.592 114.383 43.0187 114.269 43.36ZM145.068 21.984L144.94 22.8373H130.647L130.86 21.984H145.068ZM134.7 40.3733C134.473 41.1698 134.501 41.7529 134.785 42.1227C135.098 42.4924 135.511 42.6773 136.023 42.6773C136.62 42.6773 137.217 42.3929 137.815 41.824C138.441 41.2551 139.009 40.2596 139.521 38.8373L140.161 37.088H140.972L140.119 39.648C139.521 41.4116 138.697 42.6773 137.644 43.4453C136.592 44.2133 135.34 44.5973 133.889 44.5973C132.609 44.5973 131.628 44.3129 130.945 43.744C130.291 43.1751 129.893 42.4071 129.751 41.44C129.637 40.4444 129.765 39.3209 130.135 38.0693L136.577 15.584C137.601 15.5556 138.554 15.4987 139.436 15.4133C140.346 15.328 141.2 15.1858 141.996 14.9867L134.7 40.3733ZM148.92 44H143.672L148.792 25.6107C149.048 24.7573 149.133 24.16 149.048 23.8187C148.963 23.4773 148.707 23.3067 148.28 23.3067C147.74 23.3067 147.242 23.5769 146.787 24.1173C146.332 24.6578 145.862 25.6107 145.379 26.976L144.653 28.9813H143.843L144.952 25.7813C145.35 24.6436 145.848 23.7618 146.445 23.136C147.043 22.4818 147.697 22.0267 148.408 21.7707C149.119 21.5147 149.845 21.3867 150.584 21.3867C151.494 21.3867 152.163 21.5716 152.589 21.9413C153.045 22.3111 153.329 22.7947 153.443 23.392C153.585 23.9893 153.613 24.6436 153.528 25.3547C153.471 26.0373 153.357 26.7058 153.187 27.36L148.92 44ZM159.843 22.368C159.217 22.368 158.577 22.5956 157.923 23.0507C157.269 23.4773 156.586 24.1742 155.875 25.1413C155.164 26.1084 154.438 27.3884 153.699 28.9813C152.988 30.5458 152.248 32.4658 151.48 34.7413C150.712 36.9884 149.944 39.648 149.176 42.72L150.2 37.0453C151.082 34.0587 151.907 31.5698 152.675 29.5787C153.471 27.5591 154.239 25.952 154.979 24.7573C155.747 23.5342 156.557 22.6667 157.411 22.1547C158.264 21.6427 159.189 21.3867 160.184 21.3867C161.208 21.3867 161.99 21.6853 162.531 22.2827C163.1 22.88 163.384 23.6196 163.384 24.5013C163.384 25.2124 163.213 25.8809 162.872 26.5067C162.531 27.104 162.076 27.5876 161.507 27.9573C160.966 28.2987 160.341 28.4693 159.629 28.4693C158.918 28.4693 158.349 28.2844 157.923 27.9147C157.525 27.5449 157.325 27.0044 157.325 26.2933C157.325 25.6676 157.468 25.0987 157.752 24.5867C158.037 24.0747 158.406 23.648 158.861 23.3067C159.317 22.9369 159.814 22.6809 160.355 22.5387C160.298 22.4818 160.227 22.4391 160.141 22.4107C160.056 22.3822 159.957 22.368 159.843 22.368ZM174.822 22.24C174.083 22.24 173.329 22.624 172.561 23.392C171.793 24.1316 171.067 25.1556 170.385 26.464C169.702 27.744 169.076 29.1804 168.507 30.7733C167.967 32.3662 167.54 34.016 167.227 35.7227C166.915 37.4009 166.758 39.008 166.758 40.544C166.758 41.6818 166.9 42.5067 167.185 43.0187C167.498 43.5022 167.953 43.744 168.55 43.744C169.261 43.744 170.001 43.3742 170.769 42.6347C171.537 41.8951 172.262 40.8996 172.945 39.648C173.656 38.368 174.282 36.9458 174.822 35.3813C175.363 33.7884 175.789 32.1387 176.102 30.432C176.415 28.7253 176.571 27.0613 176.571 25.44C176.571 24.2453 176.415 23.4204 176.102 22.9653C175.818 22.4818 175.391 22.24 174.822 22.24ZM161.723 37.6853C161.723 36.4053 161.894 35.0258 162.235 33.5467C162.605 32.0676 163.146 30.6169 163.857 29.1947C164.568 27.744 165.45 26.4356 166.502 25.2693C167.583 24.0747 168.835 23.136 170.257 22.4533C171.679 21.7422 173.286 21.3867 175.078 21.3867C177.126 21.3867 178.719 21.9698 179.857 23.136C181.023 24.2738 181.606 25.9947 181.606 28.2987C181.606 29.5787 181.421 30.9582 181.051 32.4373C180.71 33.9164 180.184 35.3813 179.473 36.832C178.762 38.2542 177.866 39.5627 176.785 40.7573C175.732 41.9236 174.495 42.8622 173.073 43.5733C171.651 44.256 170.043 44.5973 168.251 44.5973C166.203 44.5973 164.596 44.0142 163.43 42.848C162.292 41.6818 161.723 39.9609 161.723 37.6853ZM211.548 13.8347C214.677 13.8347 216.952 14.3467 218.375 15.3707C219.797 16.3662 220.508 17.7173 220.508 19.424C220.508 20.9031 220.039 22.24 219.1 23.4347C218.19 24.6293 216.938 25.6391 215.345 26.464C213.752 27.2604 211.946 27.8151 209.927 28.128C212.942 28.3556 215.146 29.0951 216.54 30.3467C217.962 31.5982 218.673 33.0916 218.673 34.8267C218.673 36.3627 218.303 37.6996 217.564 38.8373C216.853 39.9751 215.871 40.928 214.62 41.696C213.397 42.464 211.96 43.0471 210.311 43.4453C208.661 43.8151 206.911 44 205.063 44C204.095 44 203.029 43.9858 201.863 43.9573C200.725 43.9004 199.317 43.872 197.639 43.872C196.927 43.872 196.188 43.8862 195.42 43.9147C194.652 43.9147 193.927 43.9289 193.244 43.9573C192.561 43.9573 191.978 43.9716 191.495 44L191.665 43.1467C192.632 43.0898 193.386 42.976 193.927 42.8053C194.467 42.6347 194.894 42.2933 195.207 41.7813C195.519 41.2693 195.804 40.5013 196.06 39.4773L201.692 18.3147C201.891 17.4613 202.005 16.7787 202.033 16.2667C202.062 15.7262 201.863 15.328 201.436 15.072C201.038 14.7876 200.284 14.6453 199.175 14.6453L199.388 13.792C199.871 13.8204 200.44 13.8489 201.095 13.8773C201.777 13.8773 202.503 13.8916 203.271 13.92C204.039 13.92 204.75 13.92 205.404 13.92C206.627 13.92 207.708 13.9058 208.647 13.8773C209.614 13.8489 210.581 13.8347 211.548 13.8347ZM203.569 28.6827L203.74 27.9573H206.897C208.519 27.9573 209.898 27.5449 211.036 26.72C212.202 25.8667 213.084 24.7573 213.681 23.392C214.307 22.0267 214.62 20.5902 214.62 19.0827C214.62 17.6604 214.335 16.5653 213.767 15.7973C213.226 15.0293 212.273 14.6453 210.908 14.6453C209.912 14.6453 209.201 14.8444 208.775 15.2427C208.348 15.6124 207.978 16.4231 207.665 17.6747L201.905 39.4773C201.735 40.1884 201.621 40.8142 201.564 41.3547C201.535 41.8951 201.678 42.3076 201.991 42.592C202.303 42.8764 202.887 43.0187 203.74 43.0187C205.759 43.0187 207.409 42.6347 208.689 41.8667C209.969 41.0987 210.922 40.0462 211.548 38.7093C212.174 37.344 212.487 35.808 212.487 34.1013C212.487 33.0489 212.302 32.1244 211.932 31.328C211.591 30.5031 211.036 29.8631 210.268 29.408C209.5 28.9244 208.476 28.6827 207.196 28.6827H203.569ZM226.554 40.3733C226.327 41.1413 226.27 41.7244 226.384 42.1227C226.526 42.4924 226.81 42.6773 227.237 42.6773C227.635 42.6773 228.062 42.4356 228.517 41.952C229 41.44 229.512 40.4587 230.053 39.008L230.736 37.088H231.546L230.48 40.2027C230.081 41.3404 229.584 42.2364 228.986 42.8907C228.389 43.5164 227.749 43.9573 227.066 44.2133C226.384 44.4693 225.687 44.5973 224.976 44.5973C224.065 44.5973 223.34 44.4267 222.8 44.0853C222.259 43.744 221.889 43.2747 221.69 42.6773C221.491 42.08 221.42 41.3973 221.477 40.6293C221.534 39.8329 221.704 38.9796 221.989 38.0693L228.773 15.5413C229.057 14.5742 229.029 13.8631 228.688 13.408C228.346 12.9529 227.479 12.7253 226.085 12.7253L226.384 11.8293C228.232 11.8009 229.882 11.6444 231.333 11.36C232.784 11.0471 234.177 10.6204 235.514 10.08L226.554 40.3733ZM240.873 14.6453C240.958 13.5929 241.385 12.7538 242.153 12.128C242.921 11.5022 243.817 11.1893 244.841 11.1893C245.779 11.1893 246.491 11.4596 246.974 12C247.486 12.512 247.699 13.1804 247.614 14.0053C247.529 14.9724 247.102 15.7831 246.334 16.4373C245.566 17.0916 244.67 17.4187 243.646 17.4187C242.707 17.4187 241.982 17.1627 241.47 16.6507C240.987 16.1102 240.787 15.4418 240.873 14.6453ZM239.379 25.6107C239.891 24.0747 239.721 23.3067 238.867 23.3067C238.299 23.3067 237.787 23.6053 237.331 24.2027C236.876 24.7716 236.393 25.696 235.881 26.976L235.155 28.9813H234.345L235.454 25.7813C235.881 24.6436 236.393 23.7618 236.99 23.136C237.587 22.4818 238.256 22.0267 238.995 21.7707C239.735 21.5147 240.46 21.3867 241.171 21.3867C242.167 21.3867 242.921 21.5716 243.433 21.9413C243.945 22.3111 244.286 22.7947 244.457 23.392C244.627 23.9893 244.67 24.6436 244.585 25.3547C244.499 26.0373 244.343 26.7058 244.115 27.36L239.593 40.3733C239.337 41.1413 239.266 41.7244 239.379 42.1227C239.493 42.4924 239.763 42.6773 240.19 42.6773C240.645 42.6773 241.1 42.4356 241.555 41.952C242.039 41.44 242.551 40.4587 243.091 39.008L243.817 37.088H244.627L243.561 40.2027C243.134 41.3404 242.622 42.2364 242.025 42.8907C241.427 43.5164 240.773 43.9573 240.062 44.2133C239.351 44.4693 238.654 44.5973 237.971 44.5973C236.72 44.5973 235.81 44.3271 235.241 43.7867C234.672 43.2178 234.387 42.4498 234.387 41.4827C234.387 40.4871 234.615 39.3493 235.07 38.0693L239.379 25.6107ZM249.194 43.36C249.422 43.4738 249.664 43.5733 249.92 43.6587C250.176 43.7156 250.531 43.744 250.986 43.744C252.067 43.744 252.963 43.4027 253.674 42.72C254.414 42.0089 254.784 41.0276 254.784 39.776C254.784 38.8658 254.584 37.9413 254.186 37.0027C253.816 36.064 253.248 35.0258 252.48 33.888C251.797 32.8924 251.171 31.9111 250.602 30.944C250.062 29.9769 249.792 28.8676 249.792 27.616C249.792 26.3929 250.09 25.3262 250.688 24.416C251.285 23.4773 252.138 22.7378 253.248 22.1973C254.357 21.6569 255.651 21.3867 257.13 21.3867C258.097 21.3867 259.05 21.5004 259.989 21.728C260.928 21.9556 261.696 22.368 262.293 22.9653C262.89 23.5627 263.189 24.4302 263.189 25.568C263.189 25.9662 263.104 26.3929 262.933 26.848C262.762 27.2747 262.506 27.6444 262.165 27.9573C261.824 28.2702 261.368 28.4267 260.8 28.4267C260.202 28.4267 259.704 28.1991 259.306 27.744C258.908 27.2604 258.709 26.6489 258.709 25.9093C258.709 25.2551 258.823 24.6436 259.05 24.0747C259.306 23.5058 259.605 23.008 259.946 22.5813C259.548 22.3538 258.979 22.24 258.24 22.24C257.216 22.24 256.391 22.5671 255.765 23.2213C255.139 23.8756 254.826 24.8 254.826 25.9947C254.826 26.6204 254.926 27.2178 255.125 27.7867C255.352 28.3271 255.651 28.896 256.021 29.4933C256.419 30.0622 256.86 30.7307 257.344 31.4987C258.14 32.7787 258.766 33.9307 259.221 34.9547C259.676 35.9502 259.904 36.9742 259.904 38.0267C259.904 39.2782 259.562 40.4018 258.88 41.3973C258.225 42.3929 257.315 43.1751 256.149 43.744C254.983 44.3129 253.617 44.5973 252.053 44.5973C250.944 44.5973 249.877 44.4409 248.853 44.128C247.857 43.8436 247.032 43.36 246.378 42.6773C245.752 41.9947 245.44 41.056 245.44 39.8613C245.44 39.2071 245.624 38.6098 245.994 38.0693C246.336 37.5004 246.876 37.216 247.616 37.216C248.355 37.216 248.91 37.5147 249.28 38.112C249.649 38.7093 249.834 39.4489 249.834 40.3307C249.834 40.9564 249.749 41.5396 249.578 42.08C249.436 42.592 249.308 43.0187 249.194 43.36ZM266.169 43.36C266.397 43.4738 266.638 43.5733 266.894 43.6587C267.15 43.7156 267.506 43.744 267.961 43.744C269.042 43.744 269.938 43.4027 270.649 42.72C271.389 42.0089 271.758 41.0276 271.758 39.776C271.758 38.8658 271.559 37.9413 271.161 37.0027C270.791 36.064 270.222 35.0258 269.454 33.888C268.772 32.8924 268.146 31.9111 267.577 30.944C267.037 29.9769 266.766 28.8676 266.766 27.616C266.766 26.3929 267.065 25.3262 267.662 24.416C268.26 23.4773 269.113 22.7378 270.222 22.1973C271.332 21.6569 272.626 21.3867 274.105 21.3867C275.072 21.3867 276.025 21.5004 276.964 21.728C277.902 21.9556 278.67 22.368 279.268 22.9653C279.865 23.5627 280.164 24.4302 280.164 25.568C280.164 25.9662 280.078 26.3929 279.908 26.848C279.737 27.2747 279.481 27.6444 279.14 27.9573C278.798 28.2702 278.343 28.4267 277.774 28.4267C277.177 28.4267 276.679 28.1991 276.281 27.744C275.883 27.2604 275.684 26.6489 275.684 25.9093C275.684 25.2551 275.798 24.6436 276.025 24.0747C276.281 23.5058 276.58 23.008 276.921 22.5813C276.523 22.3538 275.954 22.24 275.214 22.24C274.19 22.24 273.366 22.5671 272.74 23.2213C272.114 23.8756 271.801 24.8 271.801 25.9947C271.801 26.6204 271.901 27.2178 272.1 27.7867C272.327 28.3271 272.626 28.896 272.996 29.4933C273.394 30.0622 273.835 30.7307 274.318 31.4987C275.115 32.7787 275.741 33.9307 276.196 34.9547C276.651 35.9502 276.878 36.9742 276.878 38.0267C276.878 39.2782 276.537 40.4018 275.854 41.3973C275.2 42.3929 274.29 43.1751 273.124 43.744C271.958 44.3129 270.592 44.5973 269.028 44.5973C267.918 44.5973 266.852 44.4409 265.828 44.128C264.832 43.8436 264.007 43.36 263.353 42.6773C262.727 41.9947 262.414 41.056 262.414 39.8613C262.414 39.2071 262.599 38.6098 262.969 38.0693C263.31 37.5004 263.851 37.216 264.59 37.216C265.33 37.216 265.885 37.5147 266.254 38.112C266.624 38.7093 266.809 39.4489 266.809 40.3307C266.809 40.9564 266.724 41.5396 266.553 42.08C266.411 42.592 266.283 43.0187 266.169 43.36Z" fill="#474747"/>
<defs>
<clipPath id="clip0_10_925">
<rect width="56" height="55" fill="white" transform="translate(0.5)"/>
</clipPath>
</defs>
</svg>
