<svg width="311" height="221" viewBox="0 0 311 221" fill="none" xmlns="http://www.w3.org/2000/svg">
<rect width="311" height="221" fill="#474747"/>
<path d="M9.24 23.288C7.544 23.288 6.088 22.928 4.872 22.208C3.656 21.472 2.72 20.456 2.064 19.16C1.408 17.848 1.08 16.336 1.08 14.624C1.08 12.912 1.408 11.4 2.064 10.088C2.72 8.776 3.656 7.752 4.872 7.016C6.088 6.28 7.544 5.912 9.24 5.912C11.256 5.912 12.904 6.416 14.184 7.424C15.48 8.416 16.288 9.816 16.608 11.624H13.224C13.016 10.712 12.568 10 11.88 9.488C11.208 8.96 10.312 8.696 9.192 8.696C7.64 8.696 6.424 9.224 5.544 10.28C4.664 11.336 4.224 12.784 4.224 14.624C4.224 16.464 4.664 17.912 5.544 18.968C6.424 20.008 7.64 20.528 9.192 20.528C10.312 20.528 11.208 20.288 11.88 19.808C12.568 19.312 13.016 18.632 13.224 17.768H16.608C16.288 19.496 15.48 20.848 14.184 21.824C12.904 22.8 11.256 23.288 9.24 23.288ZM24.2473 23.288C23.0953 23.288 22.0553 23.024 21.1273 22.496C20.2153 21.968 19.4873 21.24 18.9433 20.312C18.4153 19.368 18.1513 18.28 18.1513 17.048C18.1513 15.816 18.4233 14.736 18.9673 13.808C19.5113 12.864 20.2393 12.128 21.1513 11.6C22.0793 11.072 23.1193 10.808 24.2713 10.808C25.4073 10.808 26.4313 11.072 27.3433 11.6C28.2713 12.128 28.9993 12.864 29.5273 13.808C30.0713 14.736 30.3433 15.816 30.3433 17.048C30.3433 18.28 30.0713 19.368 29.5273 20.312C28.9993 21.24 28.2713 21.968 27.3433 22.496C26.4153 23.024 25.3833 23.288 24.2473 23.288ZM24.2473 20.624C25.0473 20.624 25.7433 20.328 26.3353 19.736C26.9273 19.128 27.2233 18.232 27.2233 17.048C27.2233 15.864 26.9273 14.976 26.3353 14.384C25.7433 13.776 25.0553 13.472 24.2713 13.472C23.4553 13.472 22.7513 13.776 22.1593 14.384C21.5833 14.976 21.2953 15.864 21.2953 17.048C21.2953 18.232 21.5833 19.128 22.1593 19.736C22.7513 20.328 23.4473 20.624 24.2473 20.624ZM32.37 23V11.096H35.082L35.346 12.704C35.73 12.128 36.234 11.672 36.858 11.336C37.498 10.984 38.234 10.808 39.066 10.808C40.906 10.808 42.21 11.52 42.978 12.944C43.41 12.288 43.986 11.768 44.706 11.384C45.442 11 46.242 10.808 47.106 10.808C48.658 10.808 49.85 11.272 50.682 12.2C51.514 13.128 51.93 14.488 51.93 16.28V23H48.858V16.568C48.858 15.544 48.658 14.76 48.258 14.216C47.874 13.672 47.274 13.4 46.458 13.4C45.626 13.4 44.954 13.704 44.442 14.312C43.946 14.92 43.698 15.768 43.698 16.856V23H40.626V16.568C40.626 15.544 40.426 14.76 40.026 14.216C39.626 13.672 39.01 13.4 38.178 13.4C37.362 13.4 36.698 13.704 36.186 14.312C35.69 14.92 35.442 15.768 35.442 16.856V23H32.37ZM59.9106 23.288C58.7106 23.288 57.6466 23.032 56.7186 22.52C55.7906 22.008 55.0626 21.288 54.5346 20.36C54.0066 19.432 53.7426 18.36 53.7426 17.144C53.7426 15.912 53.9986 14.816 54.5106 13.856C55.0386 12.896 55.7586 12.152 56.6706 11.624C57.5986 11.08 58.6866 10.808 59.9346 10.808C61.1026 10.808 62.1346 11.064 63.0306 11.576C63.9266 12.088 64.6226 12.792 65.1186 13.688C65.6306 14.568 65.8866 15.552 65.8866 16.64C65.8866 16.816 65.8786 17 65.8626 17.192C65.8626 17.384 65.8546 17.584 65.8386 17.792H56.7906C56.8546 18.72 57.1746 19.448 57.7506 19.976C58.3426 20.504 59.0546 20.768 59.8866 20.768C60.5106 20.768 61.0306 20.632 61.4466 20.36C61.8786 20.072 62.1986 19.704 62.4066 19.256H65.5266C65.3026 20.008 64.9266 20.696 64.3986 21.32C63.8866 21.928 63.2466 22.408 62.4786 22.76C61.7266 23.112 60.8706 23.288 59.9106 23.288ZM59.9346 13.304C59.1826 13.304 58.5186 13.52 57.9426 13.952C57.3666 14.368 56.9986 15.008 56.8386 15.872H62.7666C62.7186 15.088 62.4306 14.464 61.9026 14C61.3746 13.536 60.7186 13.304 59.9346 13.304ZM76.8531 23.288C75.8291 23.288 74.9891 23.128 74.3331 22.808C73.6771 22.472 73.1891 22.032 72.8691 21.488C72.5491 20.944 72.3891 20.344 72.3891 19.688C72.3891 18.584 72.8211 17.688 73.6851 17C74.5491 16.312 75.8451 15.968 77.5731 15.968H80.5971V15.68C80.5971 14.864 80.3651 14.264 79.9011 13.88C79.4371 13.496 78.8611 13.304 78.1731 13.304C77.5491 13.304 77.0051 13.456 76.5411 13.76C76.0771 14.048 75.7891 14.48 75.6771 15.056H72.6771C72.7571 14.192 73.0451 13.44 73.5411 12.8C74.0531 12.16 74.7091 11.672 75.5091 11.336C76.3091 10.984 77.2051 10.808 78.1971 10.808C79.8931 10.808 81.2291 11.232 82.2051 12.08C83.1811 12.928 83.6691 14.128 83.6691 15.68V23H81.0531L80.7651 21.08C80.4131 21.72 79.9171 22.248 79.2771 22.664C78.6531 23.08 77.8451 23.288 76.8531 23.288ZM77.5491 20.888C78.4291 20.888 79.1091 20.6 79.5891 20.024C80.0851 19.448 80.3971 18.736 80.5251 17.888H77.9091C77.0931 17.888 76.5091 18.04 76.1571 18.344C75.8051 18.632 75.6291 18.992 75.6291 19.424C75.6291 19.888 75.8051 20.248 76.1571 20.504C76.5091 20.76 76.9731 20.888 77.5491 20.888ZM85.8806 23V11.096H88.5926L88.8326 13.112C89.2006 12.408 89.7286 11.848 90.4166 11.432C91.1206 11.016 91.9446 10.808 92.8886 10.808C94.3606 10.808 95.5046 11.272 96.3206 12.2C97.1366 13.128 97.5446 14.488 97.5446 16.28V23H94.4726V16.568C94.4726 15.544 94.2646 14.76 93.8486 14.216C93.4326 13.672 92.7846 13.4 91.9046 13.4C91.0406 13.4 90.3286 13.704 89.7686 14.312C89.2246 14.92 88.9526 15.768 88.9526 16.856V23H85.8806ZM105.234 23.288C104.114 23.288 103.114 23.016 102.234 22.472C101.354 21.928 100.658 21.184 100.146 20.24C99.6342 19.296 99.3782 18.224 99.3782 17.024C99.3782 15.824 99.6342 14.76 100.146 13.832C100.658 12.888 101.354 12.152 102.234 11.624C103.114 11.08 104.114 10.808 105.234 10.808C106.13 10.808 106.914 10.976 107.586 11.312C108.258 11.648 108.802 12.12 109.218 12.728V5.72H112.29V23H109.554L109.218 21.296C108.834 21.824 108.322 22.288 107.682 22.688C107.058 23.088 106.242 23.288 105.234 23.288ZM105.882 20.6C106.874 20.6 107.682 20.272 108.306 19.616C108.946 18.944 109.266 18.088 109.266 17.048C109.266 16.008 108.946 15.16 108.306 14.504C107.682 13.832 106.874 13.496 105.882 13.496C104.906 13.496 104.098 13.824 103.458 14.48C102.818 15.136 102.498 15.984 102.498 17.024C102.498 18.064 102.818 18.92 103.458 19.592C104.098 20.264 104.906 20.6 105.882 20.6ZM122.913 23L118.545 11.096H121.761L124.785 20.096L127.809 11.096H131.025L126.633 23H122.913ZM133.899 9.248C133.339 9.248 132.875 9.08 132.507 8.744C132.155 8.408 131.979 7.984 131.979 7.472C131.979 6.96 132.155 6.544 132.507 6.224C132.875 5.888 133.339 5.72 133.899 5.72C134.459 5.72 134.915 5.888 135.267 6.224C135.635 6.544 135.819 6.96 135.819 7.472C135.819 7.984 135.635 8.408 135.267 8.744C134.915 9.08 134.459 9.248 133.899 9.248ZM132.363 23V11.096H135.435V23H132.363ZM142.841 23.288C141.785 23.288 140.857 23.12 140.057 22.784C139.257 22.432 138.617 21.952 138.137 21.344C137.657 20.736 137.369 20.032 137.273 19.232H140.369C140.465 19.696 140.721 20.096 141.137 20.432C141.569 20.752 142.121 20.912 142.793 20.912C143.465 20.912 143.953 20.776 144.257 20.504C144.577 20.232 144.737 19.92 144.737 19.568C144.737 19.056 144.513 18.712 144.065 18.536C143.617 18.344 142.993 18.16 142.193 17.984C141.681 17.872 141.161 17.736 140.633 17.576C140.105 17.416 139.617 17.216 139.169 16.976C138.737 16.72 138.385 16.4 138.113 16.016C137.841 15.616 137.705 15.128 137.705 14.552C137.705 13.496 138.121 12.608 138.953 11.888C139.801 11.168 140.985 10.808 142.505 10.808C143.913 10.808 145.033 11.136 145.865 11.792C146.713 12.448 147.217 13.352 147.377 14.504H144.473C144.297 13.624 143.633 13.184 142.481 13.184C141.905 13.184 141.457 13.296 141.137 13.52C140.833 13.744 140.681 14.024 140.681 14.36C140.681 14.712 140.913 14.992 141.377 15.2C141.841 15.408 142.457 15.6 143.225 15.776C144.057 15.968 144.817 16.184 145.505 16.424C146.209 16.648 146.769 16.992 147.185 17.456C147.601 17.904 147.809 18.552 147.809 19.4C147.825 20.136 147.633 20.8 147.233 21.392C146.833 21.984 146.257 22.448 145.505 22.784C144.753 23.12 143.865 23.288 142.841 23.288ZM151.467 9.248C150.907 9.248 150.443 9.08 150.075 8.744C149.723 8.408 149.547 7.984 149.547 7.472C149.547 6.96 149.723 6.544 150.075 6.224C150.443 5.888 150.907 5.72 151.467 5.72C152.027 5.72 152.483 5.888 152.835 6.224C153.203 6.544 153.387 6.96 153.387 7.472C153.387 7.984 153.203 8.408 152.835 8.744C152.483 9.08 152.027 9.248 151.467 9.248ZM149.931 23V11.096H153.003V23H149.931ZM160.793 23C159.545 23 158.545 22.696 157.793 22.088C157.041 21.48 156.665 20.4 156.665 18.848V13.664H154.625V11.096H156.665L157.025 7.904H159.737V11.096H162.953V13.664H159.737V18.872C159.737 19.448 159.857 19.848 160.097 20.072C160.353 20.28 160.785 20.384 161.393 20.384H162.881V23H160.793ZM174.333 23.288C172.845 23.288 171.693 22.824 170.877 21.896C170.077 20.968 169.677 19.608 169.677 17.816V11.096H172.725V17.528C172.725 18.552 172.933 19.336 173.349 19.88C173.765 20.424 174.421 20.696 175.317 20.696C176.165 20.696 176.861 20.392 177.405 19.784C177.965 19.176 178.245 18.328 178.245 17.24V11.096H181.317V23H178.605L178.365 20.984C177.997 21.688 177.461 22.248 176.757 22.664C176.069 23.08 175.261 23.288 174.333 23.288ZM188.671 23.288C187.615 23.288 186.687 23.12 185.887 22.784C185.087 22.432 184.447 21.952 183.967 21.344C183.487 20.736 183.199 20.032 183.103 19.232H186.199C186.295 19.696 186.551 20.096 186.967 20.432C187.399 20.752 187.951 20.912 188.623 20.912C189.295 20.912 189.783 20.776 190.087 20.504C190.407 20.232 190.567 19.92 190.567 19.568C190.567 19.056 190.343 18.712 189.895 18.536C189.447 18.344 188.823 18.16 188.023 17.984C187.511 17.872 186.991 17.736 186.463 17.576C185.935 17.416 185.447 17.216 184.999 16.976C184.567 16.72 184.215 16.4 183.943 16.016C183.671 15.616 183.535 15.128 183.535 14.552C183.535 13.496 183.951 12.608 184.783 11.888C185.631 11.168 186.815 10.808 188.335 10.808C189.743 10.808 190.863 11.136 191.695 11.792C192.543 12.448 193.047 13.352 193.207 14.504H190.303C190.127 13.624 189.463 13.184 188.311 13.184C187.735 13.184 187.287 13.296 186.967 13.52C186.663 13.744 186.511 14.024 186.511 14.36C186.511 14.712 186.743 14.992 187.207 15.2C187.671 15.408 188.287 15.6 189.055 15.776C189.887 15.968 190.647 16.184 191.335 16.424C192.039 16.648 192.599 16.992 193.015 17.456C193.431 17.904 193.639 18.552 193.639 19.4C193.655 20.136 193.463 20.8 193.063 21.392C192.663 21.984 192.087 22.448 191.335 22.784C190.583 23.12 189.695 23.288 188.671 23.288Z" fill="white"/>
<path d="M3 80C3 78.8954 3.89543 78 5 78H8.27924C8.70967 78 9.09181 78.2754 9.22792 78.6838L10.7257 83.1772C10.8831 83.6493 10.6694 84.1653 10.2243 84.3879L7.96701 85.5165C9.06925 87.9612 11.0388 89.9308 13.4835 91.033L14.6121 88.7757C14.8347 88.3306 15.3507 88.1169 15.8228 88.2743L20.3162 89.7721C20.7246 89.9082 21 90.2903 21 90.7208V94C21 95.1046 20.1046 96 19 96H18C9.71573 96 3 89.2843 3 81V80Z" stroke="white" stroke-width="2" stroke-linecap="round" stroke-linejoin="round"/>
<path d="M47.968 94.32C47.392 93.7653 46.8587 93.104 46.368 92.336C45.8773 91.5787 45.4827 90.7253 45.184 89.776C44.896 88.816 44.752 87.7813 44.752 86.672C44.752 85.5627 44.896 84.5333 45.184 83.584C45.4827 82.624 45.8773 81.7653 46.368 81.008C46.8587 80.24 47.392 79.5787 47.968 79.024H49.344V79.152C48.3627 80.112 47.5733 81.2373 46.976 82.528C46.3893 83.808 46.096 85.1893 46.096 86.672C46.096 88.1547 46.3947 89.5413 46.992 90.832C47.5893 92.112 48.3733 93.232 49.344 94.192V94.32H47.968ZM55.5841 92V89.6H49.9041V88.56L55.3441 80.8H56.9121V88.416H58.5761V89.6H56.9121V92H55.5841ZM51.3921 88.416H55.6481V82.288L51.3921 88.416ZM61.3036 92V82.304L59.4956 82.704V81.776L61.7516 80.8H62.6636V92H61.3036ZM70.0998 92V89.6H64.4198V88.56L69.8598 80.8H71.4278V88.416H73.0918V89.6H71.4278V92H70.0998ZM65.9078 88.416H70.1638V82.288L65.9078 88.416ZM74.1393 94.32V94.192C75.1099 93.232 75.8939 92.112 76.4913 90.832C77.0993 89.5413 77.4033 88.1547 77.4033 86.672C77.4033 85.1893 77.1046 83.808 76.5073 82.528C75.9099 81.2373 75.1259 80.112 74.1553 79.152V79.024H75.5153C76.1019 79.5787 76.6353 80.24 77.1153 81.008C77.6059 81.7653 77.9953 82.624 78.2833 83.584C78.5819 84.5333 78.7313 85.5627 78.7313 86.672C78.7313 87.7813 78.5819 88.816 78.2833 89.776C77.9953 90.7253 77.6059 91.5787 77.1153 92.336C76.6353 93.104 76.1019 93.7653 75.5153 94.32H74.1393ZM88.5988 92.192C87.8628 92.192 87.2014 92.0587 86.6148 91.792C86.0281 91.5147 85.5641 91.136 85.2228 90.656C84.8921 90.1653 84.7268 89.6 84.7268 88.96C84.7268 88.2773 84.9241 87.664 85.3188 87.12C85.7241 86.576 86.2574 86.2133 86.9188 86.032C86.3108 85.8293 85.8414 85.504 85.5108 85.056C85.1801 84.608 85.0148 84.1173 85.0148 83.584C85.0148 83.04 85.1588 82.544 85.4468 82.096C85.7348 81.6373 86.1454 81.2747 86.6788 81.008C87.2121 80.7413 87.8521 80.608 88.5988 80.608C89.3454 80.608 89.9854 80.7413 90.5188 81.008C91.0521 81.2747 91.4628 81.6373 91.7508 82.096C92.0388 82.544 92.1828 83.04 92.1828 83.584C92.1828 84.1067 92.0174 84.5973 91.6868 85.056C91.3561 85.504 90.8868 85.8293 90.2788 86.032C90.9401 86.2133 91.4681 86.576 91.8628 87.12C92.2681 87.664 92.4708 88.2773 92.4708 88.96C92.4708 89.6 92.3001 90.1653 91.9588 90.656C91.6281 91.136 91.1694 91.5147 90.5828 91.792C89.9961 92.0587 89.3348 92.192 88.5988 92.192ZM88.5988 85.552C89.2814 85.552 89.8201 85.3813 90.2148 85.04C90.6201 84.688 90.8228 84.2293 90.8228 83.664C90.8228 83.0347 90.6254 82.56 90.2308 82.24C89.8361 81.92 89.2921 81.76 88.5988 81.76C87.9054 81.76 87.3614 81.92 86.9668 82.24C86.5828 82.56 86.3908 83.0347 86.3908 83.664C86.3908 84.2293 86.5881 84.688 86.9828 85.04C87.3774 85.3813 87.9161 85.552 88.5988 85.552ZM88.5988 91.008C89.4414 91.008 90.0708 90.816 90.4868 90.432C90.9134 90.0373 91.1268 89.52 91.1268 88.88C91.1268 88.1547 90.8974 87.6053 90.4388 87.232C89.9801 86.8587 89.3668 86.672 88.5988 86.672C87.8308 86.672 87.2174 86.8587 86.7588 87.232C86.3001 87.6053 86.0707 88.1547 86.0707 88.88C86.0707 89.52 86.2788 90.0373 86.6948 90.432C87.1214 90.816 87.7561 91.008 88.5988 91.008ZM98.4764 92.192C97.7084 92.192 97.0417 92.0533 96.4764 91.776C95.911 91.4987 95.4577 91.12 95.1164 90.64C94.7857 90.1493 94.583 89.5947 94.5084 88.976H95.8204C95.9484 89.5947 96.247 90.096 96.7164 90.48C97.1857 90.8533 97.7777 91.04 98.4924 91.04C99.0257 91.04 99.4844 90.9173 99.8684 90.672C100.252 90.416 100.546 90.0747 100.748 89.648C100.962 89.2213 101.068 88.7467 101.068 88.224C101.068 87.392 100.834 86.72 100.364 86.208C99.895 85.696 99.287 85.44 98.5404 85.44C97.9217 85.44 97.3937 85.5787 96.9564 85.856C96.519 86.1333 96.199 86.496 95.9964 86.944H94.7164L95.6764 80.8H101.548V81.968H96.7164L96.0604 85.376C96.3164 85.0667 96.6684 84.8107 97.1164 84.608C97.575 84.4053 98.0977 84.304 98.6844 84.304C99.4204 84.304 100.06 84.4747 100.604 84.816C101.159 85.1573 101.591 85.6213 101.9 86.208C102.21 86.7947 102.364 87.4613 102.364 88.208C102.364 88.9227 102.21 89.584 101.9 90.192C101.602 90.8 101.159 91.2853 100.572 91.648C99.9964 92.0107 99.2977 92.192 98.4764 92.192ZM105.128 92L109.576 81.952H103.432V80.8H110.952V81.808L106.552 92H105.128ZM116.725 87.92V86.784H123.061V87.92H116.725ZM133.771 92.192C132.779 92.192 131.92 91.952 131.195 91.472C130.48 90.9813 129.931 90.304 129.547 89.44C129.163 88.5653 128.971 87.552 128.971 86.4C128.971 85.248 129.163 84.24 129.547 83.376C129.931 82.5013 130.48 81.824 131.195 81.344C131.92 80.8533 132.779 80.608 133.771 80.608C134.763 80.608 135.616 80.8533 136.331 81.344C137.045 81.824 137.595 82.5013 137.979 83.376C138.363 84.24 138.555 85.248 138.555 86.4C138.555 87.552 138.363 88.5653 137.979 89.44C137.595 90.304 137.045 90.9813 136.331 91.472C135.616 91.952 134.763 92.192 133.771 92.192ZM133.771 91.008C134.421 91.008 135.003 90.8267 135.515 90.464C136.037 90.0907 136.443 89.5627 136.731 88.88C137.029 88.1867 137.179 87.36 137.179 86.4C137.179 85.44 137.029 84.6187 136.731 83.936C136.443 83.2533 136.037 82.7307 135.515 82.368C135.003 81.9947 134.421 81.808 133.771 81.808C133.109 81.808 132.523 81.9947 132.011 82.368C131.499 82.7307 131.093 83.2533 130.795 83.936C130.496 84.6187 130.347 85.44 130.347 86.4C130.347 87.36 130.496 88.1867 130.795 88.88C131.093 89.5627 131.499 90.0907 132.011 90.464C132.523 90.8267 133.109 91.008 133.771 91.008ZM141.601 92V82.304L139.793 82.704V81.776L142.049 80.8H142.961V92H141.601ZM149.693 92.192C148.701 92.192 147.842 91.952 147.117 91.472C146.402 90.9813 145.853 90.304 145.469 89.44C145.085 88.5653 144.893 87.552 144.893 86.4C144.893 85.248 145.085 84.24 145.469 83.376C145.853 82.5013 146.402 81.824 147.117 81.344C147.842 80.8533 148.701 80.608 149.693 80.608C150.685 80.608 151.538 80.8533 152.253 81.344C152.967 81.824 153.517 82.5013 153.901 83.376C154.285 84.24 154.477 85.248 154.477 86.4C154.477 87.552 154.285 88.5653 153.901 89.44C153.517 90.304 152.967 90.9813 152.253 91.472C151.538 91.952 150.685 92.192 149.693 92.192ZM149.693 91.008C150.343 91.008 150.925 90.8267 151.437 90.464C151.959 90.0907 152.365 89.5627 152.653 88.88C152.951 88.1867 153.101 87.36 153.101 86.4C153.101 85.44 152.951 84.6187 152.653 83.936C152.365 83.2533 151.959 82.7307 151.437 82.368C150.925 81.9947 150.343 81.808 149.693 81.808C149.031 81.808 148.445 81.9947 147.933 82.368C147.421 82.7307 147.015 83.2533 146.717 83.936C146.418 84.6187 146.269 85.44 146.269 86.4C146.269 87.36 146.418 88.1867 146.717 88.88C147.015 89.5627 147.421 90.0907 147.933 90.464C148.445 90.8267 149.031 91.008 149.693 91.008ZM157.128 92L161.576 81.952H155.432V80.8H162.952V81.808L158.552 92H157.128Z" fill="#F9F9F7"/>
<path d="M3 132L10.8906 137.26C11.5624 137.708 12.4376 137.708 13.1094 137.26L21 132M5 143H19C20.1046 143 21 142.105 21 141V131C21 129.895 20.1046 129 19 129H5C3.89543 129 3 129.895 3 131V141C3 142.105 3.89543 143 5 143Z" stroke="white" stroke-width="2" stroke-linecap="round" stroke-linejoin="round"/>
<path d="M45.104 141V129.48H46.448V134.424C46.7147 133.933 47.0933 133.555 47.584 133.288C48.0747 133.011 48.608 132.872 49.184 132.872C50.1013 132.872 50.8373 133.16 51.392 133.736C51.9467 134.301 52.224 135.176 52.224 136.36V141H50.896V136.504C50.896 134.851 50.2293 134.024 48.896 134.024C48.2027 134.024 47.6213 134.275 47.152 134.776C46.6827 135.267 46.448 135.971 46.448 136.888V141H45.104ZM56.9003 141.192C56.2389 141.192 55.6896 141.08 55.2523 140.856C54.8149 140.632 54.4896 140.333 54.2763 139.96C54.0629 139.587 53.9563 139.181 53.9563 138.744C53.9563 137.933 54.2656 137.309 54.8843 136.872C55.5029 136.435 56.3456 136.216 57.4123 136.216H59.5563V136.12C59.5563 135.427 59.3749 134.904 59.0123 134.552C58.6496 134.189 58.1643 134.008 57.5563 134.008C57.0336 134.008 56.5803 134.141 56.1963 134.408C55.8229 134.664 55.5883 135.043 55.4923 135.544H54.1163C54.1696 134.968 54.3616 134.483 54.6923 134.088C55.0336 133.693 55.4549 133.395 55.9563 133.192C56.4576 132.979 56.9909 132.872 57.5563 132.872C58.6656 132.872 59.4976 133.171 60.0523 133.768C60.6176 134.355 60.9003 135.139 60.9003 136.12V141H59.7003L59.6203 139.576C59.3963 140.024 59.0656 140.408 58.6283 140.728C58.2016 141.037 57.6256 141.192 56.9003 141.192ZM57.1083 140.056C57.6203 140.056 58.0576 139.923 58.4203 139.656C58.7936 139.389 59.0763 139.043 59.2683 138.616C59.4603 138.189 59.5563 137.741 59.5563 137.272V137.256H57.5243C56.7349 137.256 56.1749 137.395 55.8443 137.672C55.5243 137.939 55.3643 138.275 55.3643 138.68C55.3643 139.096 55.5136 139.432 55.8123 139.688C56.1216 139.933 56.5536 140.056 57.1083 140.056ZM62.9165 144.52V133.064H64.1325L64.2605 134.376C64.5165 133.992 64.8792 133.645 65.3485 133.336C65.8285 133.027 66.4365 132.872 67.1725 132.872C67.9618 132.872 68.6498 133.053 69.2365 133.416C69.8232 133.779 70.2765 134.275 70.5965 134.904C70.9272 135.533 71.0925 136.248 71.0925 137.048C71.0925 137.848 70.9272 138.563 70.5965 139.192C70.2765 139.811 69.8178 140.301 69.2205 140.664C68.6338 141.016 67.9458 141.192 67.1565 141.192C66.5058 141.192 65.9245 141.059 65.4125 140.792C64.9112 140.525 64.5272 140.152 64.2605 139.672V144.52H62.9165ZM67.0125 140.024C67.5458 140.024 68.0152 139.901 68.4205 139.656C68.8258 139.4 69.1458 139.048 69.3805 138.6C69.6152 138.152 69.7325 137.629 69.7325 137.032C69.7325 136.435 69.6152 135.912 69.3805 135.464C69.1458 135.016 68.8258 134.669 68.4205 134.424C68.0152 134.168 67.5458 134.04 67.0125 134.04C66.4792 134.04 66.0098 134.168 65.6045 134.424C65.1992 134.669 64.8792 135.016 64.6445 135.464C64.4098 135.912 64.2925 136.435 64.2925 137.032C64.2925 137.629 64.4098 138.152 64.6445 138.6C64.8792 139.048 65.1992 139.4 65.6045 139.656C66.0098 139.901 66.4792 140.024 67.0125 140.024ZM72.9634 144.52V133.064H74.1794L74.3074 134.376C74.5634 133.992 74.926 133.645 75.3954 133.336C75.8754 133.027 76.4834 132.872 77.2194 132.872C78.0087 132.872 78.6967 133.053 79.2834 133.416C79.87 133.779 80.3234 134.275 80.6434 134.904C80.974 135.533 81.1394 136.248 81.1394 137.048C81.1394 137.848 80.974 138.563 80.6434 139.192C80.3234 139.811 79.8647 140.301 79.2674 140.664C78.6807 141.016 77.9927 141.192 77.2034 141.192C76.5527 141.192 75.9714 141.059 75.4594 140.792C74.958 140.525 74.574 140.152 74.3074 139.672V144.52H72.9634ZM77.0594 140.024C77.5927 140.024 78.062 139.901 78.4674 139.656C78.8727 139.4 79.1927 139.048 79.4274 138.6C79.662 138.152 79.7794 137.629 79.7794 137.032C79.7794 136.435 79.662 135.912 79.4274 135.464C79.1927 135.016 78.8727 134.669 78.4674 134.424C78.062 134.168 77.5927 134.04 77.0594 134.04C76.526 134.04 76.0567 134.168 75.6514 134.424C75.246 134.669 74.926 135.016 74.6914 135.464C74.4567 135.912 74.3394 136.435 74.3394 137.032C74.3394 137.629 74.4567 138.152 74.6914 138.6C74.926 139.048 75.246 139.4 75.6514 139.656C76.0567 139.901 76.526 140.024 77.0594 140.024ZM83.2336 144.52L85.2016 140.232H84.7376L81.5856 133.064H83.0416L85.6656 139.24L88.4496 133.064H89.8416L84.6416 144.52H83.2336ZM94.3963 141C93.6709 141 93.1003 140.824 92.6843 140.472C92.2683 140.12 92.0603 139.485 92.0603 138.568V134.2H90.6842V133.064H92.0603L92.2363 131.16H93.4043V133.064H95.7403V134.2H93.4043V138.568C93.4043 139.069 93.5056 139.411 93.7083 139.592C93.9109 139.763 94.2683 139.848 94.7803 139.848H95.6123V141H94.3963ZM100.344 141.192C99.4051 141.192 98.6584 140.909 98.1038 140.344C97.5491 139.768 97.2718 138.888 97.2718 137.704V133.064H98.6158V137.56C98.6158 139.213 99.2931 140.04 100.648 140.04C101.341 140.04 101.912 139.795 102.36 139.304C102.818 138.803 103.048 138.093 103.048 137.176V133.064H104.392V141H103.176L103.08 139.576C102.834 140.077 102.466 140.472 101.976 140.76C101.496 141.048 100.952 141.192 100.344 141.192ZM106.604 141V133.064H107.82L107.916 134.216C108.172 133.789 108.513 133.459 108.94 133.224C109.367 132.989 109.847 132.872 110.38 132.872C111.009 132.872 111.548 133 111.996 133.256C112.455 133.512 112.807 133.901 113.052 134.424C113.329 133.944 113.708 133.565 114.188 133.288C114.679 133.011 115.207 132.872 115.772 132.872C116.721 132.872 117.479 133.16 118.044 133.736C118.609 134.301 118.892 135.176 118.892 136.36V141H117.564V136.504C117.564 135.683 117.399 135.064 117.068 134.648C116.737 134.232 116.263 134.024 115.644 134.024C115.004 134.024 114.471 134.275 114.044 134.776C113.628 135.267 113.42 135.971 113.42 136.888V141H112.076V136.504C112.076 135.683 111.911 135.064 111.58 134.648C111.249 134.232 110.775 134.024 110.156 134.024C109.527 134.024 108.999 134.275 108.572 134.776C108.156 135.267 107.948 135.971 107.948 136.888V141H106.604ZM120.917 141V133.064H122.133L122.229 134.216C122.485 133.789 122.826 133.459 123.253 133.224C123.679 132.989 124.159 132.872 124.693 132.872C125.322 132.872 125.861 133 126.309 133.256C126.767 133.512 127.119 133.901 127.365 134.424C127.642 133.944 128.021 133.565 128.501 133.288C128.991 133.011 129.519 132.872 130.085 132.872C131.034 132.872 131.791 133.16 132.357 133.736C132.922 134.301 133.205 135.176 133.205 136.36V141H131.877V136.504C131.877 135.683 131.711 135.064 131.381 134.648C131.05 134.232 130.575 134.024 129.957 134.024C129.317 134.024 128.783 134.275 128.357 134.776C127.941 135.267 127.733 135.971 127.733 136.888V141H126.389V136.504C126.389 135.683 126.223 135.064 125.893 134.648C125.562 134.232 125.087 134.024 124.469 134.024C123.839 134.024 123.311 134.275 122.885 134.776C122.469 135.267 122.261 135.971 122.261 136.888V141H120.917ZM135.859 144.52L137.827 140.232H137.363L134.211 133.064H135.667L138.291 139.24L141.075 133.064H142.467L137.267 144.52H135.859ZM148.756 144.184C147.614 144.184 146.612 143.965 145.748 143.528C144.894 143.091 144.228 142.472 143.748 141.672C143.278 140.872 143.044 139.923 143.044 138.824C143.044 137.693 143.241 136.637 143.636 135.656C144.03 134.675 144.585 133.816 145.3 133.08C146.014 132.344 146.857 131.773 147.828 131.368C148.798 130.963 149.865 130.76 151.028 130.76C152.212 130.76 153.241 130.989 154.116 131.448C154.99 131.896 155.662 132.525 156.132 133.336C156.612 134.136 156.852 135.069 156.852 136.136C156.852 136.744 156.777 137.347 156.628 137.944C156.478 138.531 156.254 139.064 155.956 139.544C155.668 140.013 155.31 140.392 154.884 140.68C154.468 140.957 153.988 141.096 153.444 141.096C152.9 141.096 152.484 140.957 152.196 140.68C151.918 140.403 151.764 140.029 151.732 139.56C151.401 140.04 150.98 140.419 150.468 140.696C149.966 140.963 149.433 141.096 148.868 141.096C148.057 141.096 147.422 140.851 146.964 140.36C146.516 139.869 146.292 139.208 146.292 138.376C146.292 137.789 146.382 137.229 146.564 136.696C146.756 136.152 147.022 135.672 147.364 135.256C147.705 134.829 148.11 134.493 148.58 134.248C149.049 134.003 149.572 133.88 150.148 133.88C151.225 133.88 151.924 134.323 152.244 135.208L152.452 134.056H153.588L152.788 138.632C152.713 139.091 152.734 139.464 152.852 139.752C152.98 140.029 153.241 140.168 153.636 140.168C153.977 140.168 154.281 140.051 154.548 139.816C154.814 139.571 155.038 139.251 155.22 138.856C155.401 138.451 155.534 138.019 155.62 137.56C155.716 137.091 155.764 136.637 155.764 136.2C155.764 134.803 155.326 133.704 154.452 132.904C153.588 132.104 152.393 131.704 150.868 131.704C149.897 131.704 149.001 131.885 148.18 132.248C147.369 132.611 146.66 133.112 146.052 133.752C145.444 134.392 144.969 135.133 144.628 135.976C144.297 136.819 144.132 137.731 144.132 138.712C144.132 139.672 144.329 140.488 144.724 141.16C145.118 141.832 145.678 142.344 146.404 142.696C147.129 143.048 147.993 143.224 148.996 143.224C149.454 143.224 149.913 143.176 150.372 143.08C150.83 142.995 151.257 142.861 151.652 142.68L151.876 143.592C150.916 143.987 149.876 144.184 148.756 144.184ZM149.268 140.072C149.726 140.072 150.148 139.949 150.532 139.704C150.916 139.459 151.23 139.123 151.476 138.696C151.721 138.259 151.87 137.757 151.924 137.192C151.998 136.563 151.886 136.024 151.588 135.576C151.3 135.128 150.83 134.904 150.18 134.904C149.636 134.904 149.161 135.064 148.756 135.384C148.361 135.693 148.057 136.099 147.844 136.6C147.63 137.101 147.524 137.624 147.524 138.168C147.524 138.744 147.668 139.208 147.956 139.56C148.254 139.901 148.692 140.072 149.268 140.072ZM159.151 141V133.064H160.367L160.479 134.584C160.724 134.061 161.098 133.645 161.599 133.336C162.1 133.027 162.719 132.872 163.455 132.872V134.28H163.087C162.618 134.28 162.186 134.365 161.791 134.536C161.396 134.696 161.082 134.973 160.847 135.368C160.612 135.763 160.495 136.307 160.495 137V141H159.151ZM168.235 141.192C167.477 141.192 166.805 141.021 166.219 140.68C165.632 140.328 165.168 139.843 164.827 139.224C164.496 138.605 164.331 137.875 164.331 137.032C164.331 136.2 164.496 135.475 164.827 134.856C165.157 134.227 165.616 133.741 166.203 133.4C166.8 133.048 167.488 132.872 168.266 132.872C169.035 132.872 169.696 133.048 170.251 133.4C170.816 133.741 171.248 134.195 171.547 134.76C171.845 135.325 171.995 135.933 171.995 136.584C171.995 136.701 171.989 136.819 171.979 136.936C171.979 137.053 171.979 137.187 171.979 137.336H165.659C165.691 137.944 165.829 138.451 166.075 138.856C166.331 139.251 166.645 139.549 167.019 139.752C167.403 139.955 167.808 140.056 168.235 140.056C168.789 140.056 169.253 139.928 169.627 139.672C170 139.416 170.272 139.069 170.443 138.632H171.771C171.557 139.368 171.147 139.981 170.539 140.472C169.941 140.952 169.173 141.192 168.235 141.192ZM168.235 134.008C167.595 134.008 167.024 134.205 166.523 134.6C166.032 134.984 165.749 135.549 165.674 136.296H170.667C170.635 135.581 170.389 135.021 169.931 134.616C169.472 134.211 168.907 134.008 168.235 134.008ZM176.816 141.192C175.867 141.192 175.077 140.952 174.448 140.472C173.819 139.992 173.451 139.341 173.344 138.52H174.72C174.805 138.936 175.024 139.299 175.376 139.608C175.739 139.907 176.224 140.056 176.832 140.056C177.397 140.056 177.813 139.939 178.08 139.704C178.347 139.459 178.48 139.171 178.48 138.84C178.48 138.36 178.304 138.04 177.952 137.88C177.611 137.72 177.125 137.576 176.496 137.448C176.069 137.363 175.643 137.24 175.216 137.08C174.789 136.92 174.432 136.696 174.144 136.408C173.856 136.109 173.712 135.72 173.712 135.24C173.712 134.547 173.968 133.981 174.48 133.544C175.003 133.096 175.707 132.872 176.592 132.872C177.435 132.872 178.123 133.085 178.656 133.512C179.2 133.928 179.515 134.525 179.6 135.304H178.272C178.219 134.899 178.043 134.584 177.744 134.36C177.456 134.125 177.067 134.008 176.576 134.008C176.096 134.008 175.723 134.109 175.456 134.312C175.2 134.515 175.072 134.781 175.072 135.112C175.072 135.432 175.237 135.683 175.568 135.864C175.909 136.045 176.368 136.2 176.944 136.328C177.435 136.435 177.899 136.568 178.336 136.728C178.784 136.877 179.147 137.107 179.424 137.416C179.712 137.715 179.856 138.152 179.856 138.728C179.867 139.443 179.595 140.035 179.04 140.504C178.496 140.963 177.755 141.192 176.816 141.192ZM184.553 141C183.827 141 183.257 140.824 182.841 140.472C182.425 140.12 182.217 139.485 182.217 138.568V134.2H180.84V133.064H182.217L182.393 131.16H183.561V133.064H185.897V134.2H183.561V138.568C183.561 139.069 183.662 139.411 183.865 139.592C184.067 139.763 184.425 139.848 184.937 139.848H185.769V141H184.553ZM190.244 141.192C189.583 141.192 189.033 141.08 188.596 140.856C188.159 140.632 187.833 140.333 187.62 139.96C187.407 139.587 187.3 139.181 187.3 138.744C187.3 137.933 187.609 137.309 188.228 136.872C188.847 136.435 189.689 136.216 190.756 136.216H192.9V136.12C192.9 135.427 192.719 134.904 192.356 134.552C191.993 134.189 191.508 134.008 190.9 134.008C190.377 134.008 189.924 134.141 189.54 134.408C189.167 134.664 188.932 135.043 188.836 135.544H187.46C187.513 134.968 187.705 134.483 188.036 134.088C188.377 133.693 188.799 133.395 189.3 133.192C189.801 132.979 190.335 132.872 190.9 132.872C192.009 132.872 192.841 133.171 193.396 133.768C193.961 134.355 194.244 135.139 194.244 136.12V141H193.044L192.964 139.576C192.74 140.024 192.409 140.408 191.972 140.728C191.545 141.037 190.969 141.192 190.244 141.192ZM190.452 140.056C190.964 140.056 191.401 139.923 191.764 139.656C192.137 139.389 192.42 139.043 192.612 138.616C192.804 138.189 192.9 137.741 192.9 137.272V137.256H190.868C190.079 137.256 189.519 137.395 189.188 137.672C188.868 137.939 188.708 138.275 188.708 138.68C188.708 139.096 188.857 139.432 189.156 139.688C189.465 139.933 189.897 140.056 190.452 140.056ZM199.156 141.192C198.218 141.192 197.471 140.909 196.916 140.344C196.362 139.768 196.084 138.888 196.084 137.704V133.064H197.428V137.56C197.428 139.213 198.106 140.04 199.46 140.04C200.154 140.04 200.724 139.795 201.172 139.304C201.631 138.803 201.86 138.093 201.86 137.176V133.064H203.204V141H201.988L201.892 139.576C201.647 140.077 201.279 140.472 200.788 140.76C200.308 141.048 199.764 141.192 199.156 141.192ZM205.417 141V133.064H206.633L206.745 134.584C206.99 134.061 207.363 133.645 207.865 133.336C208.366 133.027 208.985 132.872 209.721 132.872V134.28H209.353C208.883 134.28 208.451 134.365 208.057 134.536C207.662 134.696 207.347 134.973 207.113 135.368C206.878 135.763 206.761 136.307 206.761 137V141H205.417ZM213.869 141.192C213.208 141.192 212.658 141.08 212.221 140.856C211.784 140.632 211.458 140.333 211.245 139.96C211.032 139.587 210.925 139.181 210.925 138.744C210.925 137.933 211.234 137.309 211.853 136.872C212.472 136.435 213.314 136.216 214.381 136.216H216.525V136.12C216.525 135.427 216.344 134.904 215.981 134.552C215.618 134.189 215.133 134.008 214.525 134.008C214.002 134.008 213.549 134.141 213.165 134.408C212.792 134.664 212.557 135.043 212.461 135.544H211.085C211.138 134.968 211.33 134.483 211.661 134.088C212.002 133.693 212.424 133.395 212.925 133.192C213.426 132.979 213.96 132.872 214.525 132.872C215.634 132.872 216.466 133.171 217.021 133.768C217.586 134.355 217.869 135.139 217.869 136.12V141H216.669L216.589 139.576C216.365 140.024 216.034 140.408 215.597 140.728C215.17 141.037 214.594 141.192 213.869 141.192ZM214.077 140.056C214.589 140.056 215.026 139.923 215.389 139.656C215.762 139.389 216.045 139.043 216.237 138.616C216.429 138.189 216.525 137.741 216.525 137.272V137.256H214.493C213.704 137.256 213.144 137.395 212.813 137.672C212.493 137.939 212.333 138.275 212.333 138.68C212.333 139.096 212.482 139.432 212.781 139.688C213.09 139.933 213.522 140.056 214.077 140.056ZM219.885 141V133.064H221.101L221.181 134.488C221.437 133.987 221.805 133.592 222.285 133.304C222.765 133.016 223.309 132.872 223.917 132.872C224.856 132.872 225.603 133.16 226.157 133.736C226.723 134.301 227.005 135.176 227.005 136.36V141H225.661V136.504C225.661 134.851 224.979 134.024 223.613 134.024C222.931 134.024 222.36 134.275 221.901 134.776C221.453 135.267 221.229 135.971 221.229 136.888V141H219.885ZM232.178 141C231.452 141 230.882 140.824 230.466 140.472C230.05 140.12 229.842 139.485 229.842 138.568V134.2H228.465V133.064H229.842L230.018 131.16H231.186V133.064H233.522V134.2H231.186V138.568C231.186 139.069 231.287 139.411 231.49 139.592C231.692 139.763 232.05 139.848 232.562 139.848H233.394V141H232.178ZM235.693 141.08C235.426 141.08 235.202 140.995 235.021 140.824C234.85 140.643 234.765 140.424 234.765 140.168C234.765 139.912 234.85 139.699 235.021 139.528C235.202 139.347 235.426 139.256 235.693 139.256C235.949 139.256 236.162 139.347 236.333 139.528C236.514 139.699 236.605 139.912 236.605 140.168C236.605 140.424 236.514 140.643 236.333 140.824C236.162 140.995 235.949 141.08 235.693 141.08ZM242.002 141.192C241.245 141.192 240.562 141.021 239.954 140.68C239.357 140.328 238.882 139.843 238.53 139.224C238.189 138.595 238.018 137.864 238.018 137.032C238.018 136.2 238.189 135.475 238.53 134.856C238.882 134.227 239.357 133.741 239.954 133.4C240.562 133.048 241.245 132.872 242.002 132.872C242.941 132.872 243.73 133.117 244.37 133.608C245.021 134.099 245.431 134.755 245.602 135.576H244.226C244.119 135.085 243.858 134.707 243.442 134.44C243.026 134.163 242.541 134.024 241.986 134.024C241.538 134.024 241.117 134.136 240.722 134.36C240.327 134.584 240.007 134.92 239.762 135.368C239.517 135.816 239.394 136.371 239.394 137.032C239.394 137.693 239.517 138.248 239.762 138.696C240.007 139.144 240.327 139.485 240.722 139.72C241.117 139.944 241.538 140.056 241.986 140.056C242.541 140.056 243.026 139.923 243.442 139.656C243.858 139.379 244.119 138.989 244.226 138.488H245.602C245.442 139.288 245.037 139.939 244.386 140.44C243.735 140.941 242.941 141.192 242.002 141.192ZM251.095 141.192C250.348 141.192 249.676 141.021 249.079 140.68C248.482 140.339 248.007 139.859 247.655 139.24C247.314 138.611 247.143 137.875 247.143 137.032C247.143 136.189 247.319 135.459 247.671 134.84C248.023 134.211 248.498 133.725 249.095 133.384C249.703 133.043 250.38 132.872 251.127 132.872C251.874 132.872 252.546 133.043 253.143 133.384C253.74 133.725 254.21 134.211 254.551 134.84C254.903 135.459 255.079 136.189 255.079 137.032C255.079 137.875 254.903 138.611 254.551 139.24C254.199 139.859 253.719 140.339 253.111 140.68C252.514 141.021 251.842 141.192 251.095 141.192ZM251.095 140.04C251.554 140.04 251.98 139.928 252.375 139.704C252.77 139.48 253.09 139.144 253.335 138.696C253.58 138.248 253.703 137.693 253.703 137.032C253.703 136.371 253.58 135.816 253.335 135.368C253.1 134.92 252.786 134.584 252.391 134.36C251.996 134.136 251.575 134.024 251.127 134.024C250.668 134.024 250.242 134.136 249.847 134.36C249.452 134.584 249.132 134.92 248.887 135.368C248.642 135.816 248.519 136.371 248.519 137.032C248.519 137.693 248.642 138.248 248.887 138.696C249.132 139.144 249.447 139.48 249.831 139.704C250.226 139.928 250.647 140.04 251.095 140.04ZM256.948 141V133.064H258.164L258.26 134.216C258.516 133.789 258.857 133.459 259.284 133.224C259.71 132.989 260.19 132.872 260.724 132.872C261.353 132.872 261.892 133 262.34 133.256C262.798 133.512 263.15 133.901 263.396 134.424C263.673 133.944 264.052 133.565 264.532 133.288C265.022 133.011 265.55 132.872 266.116 132.872C267.065 132.872 267.822 133.16 268.388 133.736C268.953 134.301 269.236 135.176 269.236 136.36V141H267.908V136.504C267.908 135.683 267.742 135.064 267.412 134.648C267.081 134.232 266.606 134.024 265.988 134.024C265.348 134.024 264.814 134.275 264.388 134.776C263.972 135.267 263.764 135.971 263.764 136.888V141H262.42V136.504C262.42 135.683 262.254 135.064 261.924 134.648C261.593 134.232 261.118 134.024 260.5 134.024C259.87 134.024 259.342 134.275 258.916 134.776C258.5 135.267 258.292 135.971 258.292 136.888V141H256.948Z" fill="#F9F9F7"/>
<path d="M17.6569 189.657C16.7202 190.593 14.7616 192.552 13.4138 193.9C12.6327 194.681 11.3677 194.681 10.5866 193.9C9.26234 192.576 7.34159 190.655 6.34315 189.657C3.21895 186.533 3.21895 181.467 6.34315 178.343C9.46734 175.219 14.5327 175.219 17.6569 178.343C20.781 181.467 20.781 186.533 17.6569 189.657Z" stroke="white" stroke-width="2" stroke-linecap="round" stroke-linejoin="round"/>
<path d="M15 184C15 185.657 13.6569 187 12 187C10.3431 187 9 185.657 9 184C9 182.343 10.3431 181 12 181C13.6569 181 15 182.343 15 184Z" stroke="white" stroke-width="2" stroke-linecap="round" stroke-linejoin="round"/>
<path d="M48.88 190.192C48.144 190.192 47.4827 190.059 46.896 189.792C46.3093 189.515 45.8453 189.136 45.504 188.656C45.1733 188.165 45.008 187.6 45.008 186.96C45.008 186.277 45.2053 185.664 45.6 185.12C46.0053 184.576 46.5387 184.213 47.2 184.032C46.592 183.829 46.1227 183.504 45.792 183.056C45.4613 182.608 45.296 182.117 45.296 181.584C45.296 181.04 45.44 180.544 45.728 180.096C46.016 179.637 46.4267 179.275 46.96 179.008C47.4933 178.741 48.1333 178.608 48.88 178.608C49.6267 178.608 50.2667 178.741 50.8 179.008C51.3333 179.275 51.744 179.637 52.032 180.096C52.32 180.544 52.464 181.04 52.464 181.584C52.464 182.107 52.2987 182.597 51.968 183.056C51.6373 183.504 51.168 183.829 50.56 184.032C51.2213 184.213 51.7493 184.576 52.144 185.12C52.5493 185.664 52.752 186.277 52.752 186.96C52.752 187.6 52.5813 188.165 52.24 188.656C51.9093 189.136 51.4507 189.515 50.864 189.792C50.2773 190.059 49.616 190.192 48.88 190.192ZM48.88 183.552C49.5627 183.552 50.1013 183.381 50.496 183.04C50.9013 182.688 51.104 182.229 51.104 181.664C51.104 181.035 50.9067 180.56 50.512 180.24C50.1173 179.92 49.5733 179.76 48.88 179.76C48.1867 179.76 47.6427 179.92 47.248 180.24C46.864 180.56 46.672 181.035 46.672 181.664C46.672 182.229 46.8693 182.688 47.264 183.04C47.6587 183.381 48.1973 183.552 48.88 183.552ZM48.88 189.008C49.7227 189.008 50.352 188.816 50.768 188.432C51.1947 188.037 51.408 187.52 51.408 186.88C51.408 186.155 51.1787 185.605 50.72 185.232C50.2613 184.859 49.648 184.672 48.88 184.672C48.112 184.672 47.4987 184.859 47.04 185.232C46.5813 185.605 46.352 186.155 46.352 186.88C46.352 187.52 46.56 188.037 46.976 188.432C47.4027 188.816 48.0373 189.008 48.88 189.008ZM58.4376 190.192C57.723 190.192 57.0776 190.064 56.5016 189.808C55.9256 189.541 55.4616 189.147 55.1096 188.624C54.7683 188.101 54.587 187.451 54.5656 186.672H55.9256C55.9363 187.312 56.1603 187.867 56.5976 188.336C57.035 188.795 57.6483 189.024 58.4376 189.024C59.227 189.024 59.819 188.805 60.2136 188.368C60.619 187.931 60.8216 187.403 60.8216 186.784C60.8216 186.261 60.6936 185.835 60.4376 185.504C60.1923 185.173 59.8563 184.928 59.4296 184.768C59.0136 184.608 58.555 184.528 58.0536 184.528H57.2216V183.392H58.0536C58.779 183.392 59.3443 183.227 59.7496 182.896C60.1656 182.565 60.3736 182.101 60.3736 181.504C60.3736 181.003 60.2083 180.592 59.8776 180.272C59.5576 179.941 59.0776 179.776 58.4376 179.776C57.819 179.776 57.323 179.963 56.9496 180.336C56.5763 180.699 56.3683 181.157 56.3256 181.712H54.9656C54.9976 181.104 55.1576 180.565 55.4456 180.096C55.7443 179.627 56.1496 179.264 56.6616 179.008C57.1736 178.741 57.7656 178.608 58.4376 178.608C59.163 178.608 59.7656 178.736 60.2456 178.992C60.7363 179.248 61.1043 179.589 61.3496 180.016C61.6056 180.443 61.7336 180.912 61.7336 181.424C61.7336 181.989 61.579 182.507 61.2696 182.976C60.9603 183.435 60.4963 183.744 59.8776 183.904C60.539 184.043 61.0883 184.357 61.5256 184.848C61.963 185.339 62.1816 185.984 62.1816 186.784C62.1816 187.403 62.0376 187.973 61.7496 188.496C61.4723 189.008 61.0563 189.419 60.5016 189.728C59.947 190.037 59.259 190.192 58.4376 190.192ZM65.0182 190L69.4663 179.952H63.3223V178.8H70.8423V179.808L66.4423 190H65.0182ZM79.1599 190.016L76.0879 178.8H77.5279L79.9439 188.416L82.6959 178.8H84.1839L86.8559 188.416L89.3039 178.8H90.7439L87.6079 190H86.0719L83.3999 180.752L80.6639 190L79.1599 190.016ZM91.5836 190.08C91.317 190.08 91.093 189.995 90.9116 189.824C90.741 189.643 90.6556 189.424 90.6556 189.168C90.6556 188.912 90.741 188.699 90.9116 188.528C91.093 188.347 91.317 188.256 91.5836 188.256C91.8396 188.256 92.053 188.347 92.2236 188.528C92.405 188.699 92.4956 188.912 92.4956 189.168C92.4956 189.424 92.405 189.643 92.2236 189.824C92.053 189.995 91.8396 190.08 91.5836 190.08ZM98.559 190V178.8H100.127L104.159 186.608L108.159 178.8H109.743V190H108.399V181.2L104.655 188.4H103.647L99.903 181.216V190H98.559ZM114.666 190.192C114.005 190.192 113.455 190.08 113.018 189.856C112.581 189.632 112.255 189.333 112.042 188.96C111.829 188.587 111.722 188.181 111.722 187.744C111.722 186.933 112.031 186.309 112.65 185.872C113.269 185.435 114.111 185.216 115.178 185.216H117.322V185.12C117.322 184.427 117.141 183.904 116.778 183.552C116.415 183.189 115.93 183.008 115.322 183.008C114.799 183.008 114.346 183.141 113.962 183.408C113.589 183.664 113.354 184.043 113.258 184.544H111.882C111.935 183.968 112.127 183.483 112.458 183.088C112.799 182.693 113.221 182.395 113.722 182.192C114.223 181.979 114.757 181.872 115.322 181.872C116.431 181.872 117.263 182.171 117.818 182.768C118.383 183.355 118.666 184.139 118.666 185.12V190H117.466L117.386 188.576C117.162 189.024 116.831 189.408 116.394 189.728C115.967 190.037 115.391 190.192 114.666 190.192ZM114.874 189.056C115.386 189.056 115.823 188.923 116.186 188.656C116.559 188.389 116.842 188.043 117.034 187.616C117.226 187.189 117.322 186.741 117.322 186.272V186.256H115.29C114.501 186.256 113.941 186.395 113.61 186.672C113.29 186.939 113.13 187.275 113.13 187.68C113.13 188.096 113.279 188.432 113.578 188.688C113.887 188.933 114.319 189.056 114.874 189.056ZM120.682 190V182.064H121.898L122.01 183.584C122.255 183.061 122.629 182.645 123.13 182.336C123.631 182.027 124.25 181.872 124.986 181.872V183.28H124.618C124.149 183.28 123.717 183.365 123.322 183.536C122.927 183.696 122.613 183.973 122.378 184.368C122.143 184.763 122.026 185.307 122.026 186V190H120.682ZM129.535 190.192C128.585 190.192 127.796 189.952 127.167 189.472C126.537 188.992 126.169 188.341 126.063 187.52H127.439C127.524 187.936 127.743 188.299 128.095 188.608C128.457 188.907 128.943 189.056 129.551 189.056C130.116 189.056 130.532 188.939 130.799 188.704C131.065 188.459 131.199 188.171 131.199 187.84C131.199 187.36 131.023 187.04 130.671 186.88C130.329 186.72 129.844 186.576 129.215 186.448C128.788 186.363 128.361 186.24 127.935 186.08C127.508 185.92 127.151 185.696 126.863 185.408C126.575 185.109 126.431 184.72 126.431 184.24C126.431 183.547 126.687 182.981 127.199 182.544C127.721 182.096 128.425 181.872 129.311 181.872C130.153 181.872 130.841 182.085 131.375 182.512C131.919 182.928 132.233 183.525 132.319 184.304H130.991C130.937 183.899 130.761 183.584 130.463 183.36C130.175 183.125 129.785 183.008 129.295 183.008C128.815 183.008 128.441 183.109 128.175 183.312C127.919 183.515 127.791 183.781 127.791 184.112C127.791 184.432 127.956 184.683 128.287 184.864C128.628 185.045 129.087 185.2 129.663 185.328C130.153 185.435 130.617 185.568 131.055 185.728C131.503 185.877 131.865 186.107 132.143 186.416C132.431 186.715 132.575 187.152 132.575 187.728C132.585 188.443 132.313 189.035 131.759 189.504C131.215 189.963 130.473 190.192 129.535 190.192ZM134.495 190V178.48H135.839V183.424C136.105 182.933 136.484 182.555 136.975 182.288C137.465 182.011 137.999 181.872 138.575 181.872C139.492 181.872 140.228 182.16 140.783 182.736C141.337 183.301 141.615 184.176 141.615 185.36V190H140.287V185.504C140.287 183.851 139.62 183.024 138.287 183.024C137.593 183.024 137.012 183.275 136.543 183.776C136.073 184.267 135.839 184.971 135.839 185.888V190H134.495ZM146.291 190.192C145.63 190.192 145.08 190.08 144.643 189.856C144.206 189.632 143.88 189.333 143.667 188.96C143.454 188.587 143.347 188.181 143.347 187.744C143.347 186.933 143.656 186.309 144.275 185.872C144.894 185.435 145.736 185.216 146.803 185.216H148.947V185.12C148.947 184.427 148.766 183.904 148.403 183.552C148.04 183.189 147.555 183.008 146.947 183.008C146.424 183.008 145.971 183.141 145.587 183.408C145.214 183.664 144.979 184.043 144.883 184.544H143.507C143.56 183.968 143.752 183.483 144.083 183.088C144.424 182.693 144.846 182.395 145.347 182.192C145.848 181.979 146.382 181.872 146.947 181.872C148.056 181.872 148.888 182.171 149.443 182.768C150.008 183.355 150.291 184.139 150.291 185.12V190H149.091L149.011 188.576C148.787 189.024 148.456 189.408 148.019 189.728C147.592 190.037 147.016 190.192 146.291 190.192ZM146.499 189.056C147.011 189.056 147.448 188.923 147.811 188.656C148.184 188.389 148.467 188.043 148.659 187.616C148.851 187.189 148.947 186.741 148.947 186.272V186.256H146.915C146.126 186.256 145.566 186.395 145.235 186.672C144.915 186.939 144.755 187.275 144.755 187.68C144.755 188.096 144.904 188.432 145.203 188.688C145.512 188.933 145.944 189.056 146.499 189.056ZM152.307 190V178.48H153.651V190H152.307ZM155.854 190V178.48H157.198V190H155.854ZM163.715 190V178.8H165.059V188.928H170.275V190H163.715ZM174.682 190.192C174.02 190.192 173.471 190.08 173.034 189.856C172.596 189.632 172.271 189.333 172.058 188.96C171.844 188.587 171.738 188.181 171.738 187.744C171.738 186.933 172.047 186.309 172.666 185.872C173.284 185.435 174.127 185.216 175.194 185.216H177.338V185.12C177.338 184.427 177.156 183.904 176.794 183.552C176.431 183.189 175.946 183.008 175.338 183.008C174.815 183.008 174.362 183.141 173.978 183.408C173.604 183.664 173.37 184.043 173.274 184.544H171.898C171.951 183.968 172.143 183.483 172.474 183.088C172.815 182.693 173.236 182.395 173.738 182.192C174.239 181.979 174.772 181.872 175.338 181.872C176.447 181.872 177.279 182.171 177.834 182.768C178.399 183.355 178.682 184.139 178.682 185.12V190H177.482L177.402 188.576C177.178 189.024 176.847 189.408 176.41 189.728C175.983 190.037 175.407 190.192 174.682 190.192ZM174.89 189.056C175.402 189.056 175.839 188.923 176.202 188.656C176.575 188.389 176.858 188.043 177.05 187.616C177.242 187.189 177.338 186.741 177.338 186.272V186.256H175.306C174.516 186.256 173.956 186.395 173.626 186.672C173.306 186.939 173.146 187.275 173.146 187.68C173.146 188.096 173.295 188.432 173.594 188.688C173.903 188.933 174.335 189.056 174.89 189.056ZM180.698 190V182.064H181.914L181.994 183.488C182.25 182.987 182.618 182.592 183.098 182.304C183.578 182.016 184.122 181.872 184.73 181.872C185.668 181.872 186.415 182.16 186.97 182.736C187.535 183.301 187.818 184.176 187.818 185.36V190H186.474V185.504C186.474 183.851 185.791 183.024 184.426 183.024C183.743 183.024 183.172 183.275 182.714 183.776C182.266 184.267 182.042 184.971 182.042 185.888V190H180.698ZM193.422 190.192C192.665 190.192 191.993 190.021 191.406 189.68C190.819 189.328 190.355 188.843 190.014 188.224C189.683 187.605 189.518 186.875 189.518 186.032C189.518 185.2 189.683 184.475 190.014 183.856C190.345 183.227 190.803 182.741 191.39 182.4C191.987 182.048 192.675 181.872 193.454 181.872C194.222 181.872 194.883 182.048 195.438 182.4C196.003 182.741 196.435 183.195 196.734 183.76C197.033 184.325 197.182 184.933 197.182 185.584C197.182 185.701 197.177 185.819 197.166 185.936C197.166 186.053 197.166 186.187 197.166 186.336H190.846C190.878 186.944 191.017 187.451 191.262 187.856C191.518 188.251 191.833 188.549 192.206 188.752C192.59 188.955 192.995 189.056 193.422 189.056C193.977 189.056 194.441 188.928 194.814 188.672C195.187 188.416 195.459 188.069 195.63 187.632H196.958C196.745 188.368 196.334 188.981 195.726 189.472C195.129 189.952 194.361 190.192 193.422 190.192ZM193.422 183.008C192.782 183.008 192.211 183.205 191.71 183.6C191.219 183.984 190.937 184.549 190.862 185.296H195.854C195.822 184.581 195.577 184.021 195.118 183.616C194.659 183.211 194.094 183.008 193.422 183.008ZM203.278 190V178.8H204.846L208.878 186.608L212.878 178.8H214.462V190H213.118V181.2L209.374 188.4H208.366L204.622 181.216V190H203.278ZM219.385 190.192C218.723 190.192 218.174 190.08 217.737 189.856C217.299 189.632 216.974 189.333 216.761 188.96C216.547 188.587 216.441 188.181 216.441 187.744C216.441 186.933 216.75 186.309 217.369 185.872C217.987 185.435 218.83 185.216 219.897 185.216H222.041V185.12C222.041 184.427 221.859 183.904 221.497 183.552C221.134 183.189 220.649 183.008 220.041 183.008C219.518 183.008 219.065 183.141 218.681 183.408C218.307 183.664 218.073 184.043 217.977 184.544H216.601C216.654 183.968 216.846 183.483 217.177 183.088C217.518 182.693 217.939 182.395 218.441 182.192C218.942 181.979 219.475 181.872 220.041 181.872C221.15 181.872 221.982 182.171 222.537 182.768C223.102 183.355 223.385 184.139 223.385 185.12V190H222.185L222.105 188.576C221.881 189.024 221.55 189.408 221.113 189.728C220.686 190.037 220.11 190.192 219.385 190.192ZM219.593 189.056C220.105 189.056 220.542 188.923 220.905 188.656C221.278 188.389 221.561 188.043 221.753 187.616C221.945 187.189 222.041 186.741 222.041 186.272V186.256H220.009C219.219 186.256 218.659 186.395 218.329 186.672C218.009 186.939 217.849 187.275 217.849 187.68C217.849 188.096 217.998 188.432 218.297 188.688C218.606 188.933 219.038 189.056 219.593 189.056ZM225.401 190V182.064H226.617L226.729 183.584C226.974 183.061 227.348 182.645 227.849 182.336C228.35 182.027 228.969 181.872 229.705 181.872V183.28H229.337C228.868 183.28 228.436 183.365 228.041 183.536C227.646 183.696 227.332 183.973 227.097 184.368C226.862 184.763 226.745 185.307 226.745 186V190H225.401ZM234.253 190.192C233.304 190.192 232.515 189.952 231.885 189.472C231.256 188.992 230.888 188.341 230.781 187.52H232.157C232.243 187.936 232.461 188.299 232.813 188.608C233.176 188.907 233.661 189.056 234.269 189.056C234.835 189.056 235.251 188.939 235.517 188.704C235.784 188.459 235.917 188.171 235.917 187.84C235.917 187.36 235.741 187.04 235.389 186.88C235.048 186.72 234.563 186.576 233.933 186.448C233.507 186.363 233.08 186.24 232.653 186.08C232.227 185.92 231.869 185.696 231.581 185.408C231.293 185.109 231.149 184.72 231.149 184.24C231.149 183.547 231.405 182.981 231.917 182.544C232.44 182.096 233.144 181.872 234.029 181.872C234.872 181.872 235.56 182.085 236.093 182.512C236.637 182.928 236.952 183.525 237.037 184.304H235.709C235.656 183.899 235.48 183.584 235.181 183.36C234.893 183.125 234.504 183.008 234.013 183.008C233.533 183.008 233.16 183.109 232.893 183.312C232.637 183.515 232.509 183.781 232.509 184.112C232.509 184.432 232.675 184.683 233.005 184.864C233.347 185.045 233.805 185.2 234.381 185.328C234.872 185.435 235.336 185.568 235.773 185.728C236.221 185.877 236.584 186.107 236.861 186.416C237.149 186.715 237.293 187.152 237.293 187.728C237.304 188.443 237.032 189.035 236.477 189.504C235.933 189.963 235.192 190.192 234.253 190.192ZM239.213 190V178.48H240.557V183.424C240.824 182.933 241.203 182.555 241.693 182.288C242.184 182.011 242.717 181.872 243.293 181.872C244.211 181.872 244.947 182.16 245.501 182.736C246.056 183.301 246.333 184.176 246.333 185.36V190H245.005V185.504C245.005 183.851 244.339 183.024 243.005 183.024C242.312 183.024 241.731 183.275 241.261 183.776C240.792 184.267 240.557 184.971 240.557 185.888V190H239.213ZM251.01 190.192C250.348 190.192 249.799 190.08 249.362 189.856C248.924 189.632 248.599 189.333 248.386 188.96C248.172 188.587 248.066 188.181 248.066 187.744C248.066 186.933 248.375 186.309 248.994 185.872C249.612 185.435 250.455 185.216 251.522 185.216H253.666V185.12C253.666 184.427 253.484 183.904 253.122 183.552C252.759 183.189 252.274 183.008 251.666 183.008C251.143 183.008 250.69 183.141 250.306 183.408C249.932 183.664 249.698 184.043 249.602 184.544H248.226C248.279 183.968 248.471 183.483 248.802 183.088C249.143 182.693 249.564 182.395 250.066 182.192C250.567 181.979 251.1 181.872 251.666 181.872C252.775 181.872 253.607 182.171 254.162 182.768C254.727 183.355 255.01 184.139 255.01 185.12V190H253.81L253.73 188.576C253.506 189.024 253.175 189.408 252.738 189.728C252.311 190.037 251.735 190.192 251.01 190.192ZM251.218 189.056C251.73 189.056 252.167 188.923 252.53 188.656C252.903 188.389 253.186 188.043 253.378 187.616C253.57 187.189 253.666 186.741 253.666 186.272V186.256H251.634C250.844 186.256 250.284 186.395 249.954 186.672C249.634 186.939 249.474 187.275 249.474 187.68C249.474 188.096 249.623 188.432 249.922 188.688C250.231 188.933 250.663 189.056 251.218 189.056ZM257.026 190V178.48H258.37V190H257.026ZM260.573 190V178.48H261.917V190H260.573ZM267.256 190C266.53 190 265.96 189.824 265.544 189.472C265.128 189.12 264.92 188.485 264.92 187.568V183.2H263.544V182.064H264.92L265.096 180.16H266.264V182.064H268.6V183.2H266.264V187.568C266.264 188.069 266.365 188.411 266.568 188.592C266.77 188.763 267.128 188.848 267.64 188.848H268.472V190H267.256ZM273.704 190.192C272.958 190.192 272.286 190.021 271.688 189.68C271.091 189.339 270.616 188.859 270.264 188.24C269.923 187.611 269.752 186.875 269.752 186.032C269.752 185.189 269.928 184.459 270.28 183.84C270.632 183.211 271.107 182.725 271.704 182.384C272.312 182.043 272.99 181.872 273.736 181.872C274.483 181.872 275.155 182.043 275.752 182.384C276.35 182.725 276.819 183.211 277.16 183.84C277.512 184.459 277.688 185.189 277.688 186.032C277.688 186.875 277.512 187.611 277.16 188.24C276.808 188.859 276.328 189.339 275.72 189.68C275.123 190.021 274.451 190.192 273.704 190.192ZM273.704 189.04C274.163 189.04 274.59 188.928 274.984 188.704C275.379 188.48 275.699 188.144 275.944 187.696C276.19 187.248 276.312 186.693 276.312 186.032C276.312 185.371 276.19 184.816 275.944 184.368C275.71 183.92 275.395 183.584 275 183.36C274.606 183.136 274.184 183.024 273.736 183.024C273.278 183.024 272.851 183.136 272.456 183.36C272.062 183.584 271.742 183.92 271.496 184.368C271.251 184.816 271.128 185.371 271.128 186.032C271.128 186.693 271.251 187.248 271.496 187.696C271.742 188.144 272.056 188.48 272.44 188.704C272.835 188.928 273.256 189.04 273.704 189.04ZM280.86 190L278.54 182.064H279.884L281.564 188.288L283.42 182.064H284.94L286.812 188.288L288.476 182.064H289.836L287.516 190H286.14L284.188 183.456L282.236 190H280.86ZM291.323 190V182.064H292.539L292.619 183.488C292.875 182.987 293.243 182.592 293.723 182.304C294.203 182.016 294.747 181.872 295.355 181.872C296.293 181.872 297.04 182.16 297.595 182.736C298.16 183.301 298.443 184.176 298.443 185.36V190H297.099V185.504C297.099 183.851 296.416 183.024 295.051 183.024C294.368 183.024 293.797 183.275 293.339 183.776C292.891 184.267 292.667 184.971 292.667 185.888V190H291.323ZM299.407 191.904L300.335 188.368H301.727L300.335 191.904H299.407ZM45.184 214V202.8H46.528V214H45.184ZM48.1988 214L52.3268 202.8H53.7508L57.8628 214H56.4388L55.4148 211.12H50.6468L49.6068 214H48.1988ZM51.0468 210.032H55.0148L53.0308 204.496L51.0468 210.032ZM67.5701 214.192C66.8021 214.192 66.1355 214.053 65.5701 213.776C65.0048 213.499 64.5515 213.12 64.2101 212.64C63.8795 212.149 63.6768 211.595 63.6021 210.976H64.9141C65.0421 211.595 65.3408 212.096 65.8101 212.48C66.2795 212.853 66.8715 213.04 67.5861 213.04C68.1195 213.04 68.5781 212.917 68.9621 212.672C69.3461 212.416 69.6395 212.075 69.8421 211.648C70.0555 211.221 70.1621 210.747 70.1621 210.224C70.1621 209.392 69.9275 208.72 69.4581 208.208C68.9888 207.696 68.3808 207.44 67.6341 207.44C67.0155 207.44 66.4875 207.579 66.0501 207.856C65.6128 208.133 65.2928 208.496 65.0901 208.944H63.8101L64.7701 202.8H70.6421V203.968H65.8101L65.1541 207.376C65.4101 207.067 65.7621 206.811 66.2101 206.608C66.6688 206.405 67.1915 206.304 67.7781 206.304C68.5141 206.304 69.1541 206.475 69.6981 206.816C70.2528 207.157 70.6848 207.621 70.9941 208.208C71.3035 208.795 71.4581 209.461 71.4581 210.208C71.4581 210.923 71.3035 211.584 70.9941 212.192C70.6955 212.8 70.2528 213.285 69.6661 213.648C69.0901 214.011 68.3915 214.192 67.5701 214.192ZM77.927 214.192C76.935 214.192 76.0763 213.952 75.351 213.472C74.6363 212.981 74.087 212.304 73.703 211.44C73.319 210.565 73.127 209.552 73.127 208.4C73.127 207.248 73.319 206.24 73.703 205.376C74.087 204.501 74.6363 203.824 75.351 203.344C76.0763 202.853 76.935 202.608 77.927 202.608C78.919 202.608 79.7723 202.853 80.487 203.344C81.2017 203.824 81.751 204.501 82.135 205.376C82.519 206.24 82.711 207.248 82.711 208.4C82.711 209.552 82.519 210.565 82.135 211.44C81.751 212.304 81.2017 212.981 80.487 213.472C79.7723 213.952 78.919 214.192 77.927 214.192ZM77.927 213.008C78.5777 213.008 79.159 212.827 79.671 212.464C80.1937 212.091 80.599 211.563 80.887 210.88C81.1857 210.187 81.335 209.36 81.335 208.4C81.335 207.44 81.1857 206.619 80.887 205.936C80.599 205.253 80.1937 204.731 79.671 204.368C79.159 203.995 78.5777 203.808 77.927 203.808C77.2657 203.808 76.679 203.995 76.167 204.368C75.655 204.731 75.2497 205.253 74.951 205.936C74.6523 206.619 74.503 207.44 74.503 208.4C74.503 209.36 74.6523 210.187 74.951 210.88C75.2497 211.563 75.655 212.091 76.167 212.464C76.679 212.827 77.2657 213.008 77.927 213.008ZM85.7568 214V204.304L83.9488 204.704V203.776L86.2048 202.8H87.1168V214H85.7568ZM93.2889 214.192C92.5209 214.192 91.8542 214.053 91.2889 213.776C90.7235 213.499 90.2702 213.12 89.9289 212.64C89.5982 212.149 89.3955 211.595 89.3209 210.976H90.6329C90.7609 211.595 91.0595 212.096 91.5289 212.48C91.9982 212.853 92.5902 213.04 93.3049 213.04C93.8382 213.04 94.2969 212.917 94.6809 212.672C95.0649 212.416 95.3582 212.075 95.5609 211.648C95.7742 211.221 95.8809 210.747 95.8809 210.224C95.8809 209.392 95.6462 208.72 95.1769 208.208C94.7075 207.696 94.0995 207.44 93.3529 207.44C92.7342 207.44 92.2062 207.579 91.7689 207.856C91.3315 208.133 91.0115 208.496 90.8089 208.944H89.5289L90.4889 202.8H96.3609V203.968H91.5289L90.8729 207.376C91.1289 207.067 91.4809 206.811 91.9289 206.608C92.3875 206.405 92.9102 206.304 93.4969 206.304C94.2329 206.304 94.8729 206.475 95.4169 206.816C95.9715 207.157 96.4035 207.621 96.7129 208.208C97.0222 208.795 97.1769 209.461 97.1769 210.208C97.1769 210.923 97.0222 211.584 96.7129 212.192C96.4142 212.8 95.9715 213.285 95.3849 213.648C94.8089 214.011 94.1102 214.192 93.2889 214.192ZM102.974 214.192C102.238 214.192 101.576 214.059 100.99 213.792C100.403 213.515 99.9391 213.136 99.5978 212.656C99.2671 212.165 99.1018 211.6 99.1018 210.96C99.1018 210.277 99.2991 209.664 99.6938 209.12C100.099 208.576 100.632 208.213 101.294 208.032C100.686 207.829 100.216 207.504 99.8858 207.056C99.5551 206.608 99.3898 206.117 99.3898 205.584C99.3898 205.04 99.5338 204.544 99.8218 204.096C100.11 203.637 100.52 203.275 101.054 203.008C101.587 202.741 102.227 202.608 102.974 202.608C103.72 202.608 104.36 202.741 104.894 203.008C105.427 203.275 105.838 203.637 106.126 204.096C106.414 204.544 106.558 205.04 106.558 205.584C106.558 206.107 106.392 206.597 106.062 207.056C105.731 207.504 105.262 207.829 104.654 208.032C105.315 208.213 105.843 208.576 106.238 209.12C106.643 209.664 106.846 210.277 106.846 210.96C106.846 211.6 106.675 212.165 106.334 212.656C106.003 213.136 105.544 213.515 104.958 213.792C104.371 214.059 103.71 214.192 102.974 214.192ZM102.974 207.552C103.656 207.552 104.195 207.381 104.59 207.04C104.995 206.688 105.198 206.229 105.198 205.664C105.198 205.035 105 204.56 104.606 204.24C104.211 203.92 103.667 203.76 102.974 203.76C102.28 203.76 101.736 203.92 101.342 204.24C100.958 204.56 100.766 205.035 100.766 205.664C100.766 206.229 100.963 206.688 101.358 207.04C101.752 207.381 102.291 207.552 102.974 207.552ZM102.974 213.008C103.816 213.008 104.446 212.816 104.862 212.432C105.288 212.037 105.502 211.52 105.502 210.88C105.502 210.155 105.272 209.605 104.814 209.232C104.355 208.859 103.742 208.672 102.974 208.672C102.206 208.672 101.592 208.859 101.134 209.232C100.675 209.605 100.446 210.155 100.446 210.88C100.446 211.52 100.654 212.037 101.07 212.432C101.496 212.816 102.131 213.008 102.974 213.008ZM107.891 215.904L108.819 212.368H110.211L108.819 215.904H107.891ZM116.122 214V202.8H117.466V212.928H122.682V214H116.122ZM127.72 214.192C126.973 214.192 126.301 214.021 125.704 213.68C125.107 213.339 124.632 212.859 124.28 212.24C123.939 211.611 123.768 210.875 123.768 210.032C123.768 209.189 123.944 208.459 124.296 207.84C124.648 207.211 125.123 206.725 125.72 206.384C126.328 206.043 127.005 205.872 127.752 205.872C128.499 205.872 129.171 206.043 129.768 206.384C130.365 206.725 130.835 207.211 131.176 207.84C131.528 208.459 131.704 209.189 131.704 210.032C131.704 210.875 131.528 211.611 131.176 212.24C130.824 212.859 130.344 213.339 129.736 213.68C129.139 214.021 128.467 214.192 127.72 214.192ZM127.72 213.04C128.179 213.04 128.605 212.928 129 212.704C129.395 212.48 129.715 212.144 129.96 211.696C130.205 211.248 130.328 210.693 130.328 210.032C130.328 209.371 130.205 208.816 129.96 208.368C129.725 207.92 129.411 207.584 129.016 207.36C128.621 207.136 128.2 207.024 127.752 207.024C127.293 207.024 126.867 207.136 126.472 207.36C126.077 207.584 125.757 207.92 125.512 208.368C125.267 208.816 125.144 209.371 125.144 210.032C125.144 210.693 125.267 211.248 125.512 211.696C125.757 212.144 126.072 212.48 126.456 212.704C126.851 212.928 127.272 213.04 127.72 213.04ZM136.613 214.192C135.663 214.192 134.874 213.952 134.245 213.472C133.615 212.992 133.247 212.341 133.141 211.52H134.517C134.602 211.936 134.821 212.299 135.173 212.608C135.535 212.907 136.021 213.056 136.629 213.056C137.194 213.056 137.61 212.939 137.877 212.704C138.143 212.459 138.277 212.171 138.277 211.84C138.277 211.36 138.101 211.04 137.749 210.88C137.407 210.72 136.922 210.576 136.293 210.448C135.866 210.363 135.439 210.24 135.013 210.08C134.586 209.92 134.229 209.696 133.941 209.408C133.653 209.109 133.509 208.72 133.509 208.24C133.509 207.547 133.765 206.981 134.277 206.544C134.799 206.096 135.503 205.872 136.389 205.872C137.231 205.872 137.919 206.085 138.453 206.512C138.997 206.928 139.311 207.525 139.397 208.304H138.069C138.015 207.899 137.839 207.584 137.541 207.36C137.253 207.125 136.863 207.008 136.373 207.008C135.893 207.008 135.519 207.109 135.253 207.312C134.997 207.515 134.869 207.781 134.869 208.112C134.869 208.432 135.034 208.683 135.365 208.864C135.706 209.045 136.165 209.2 136.741 209.328C137.231 209.435 137.695 209.568 138.133 209.728C138.581 209.877 138.943 210.107 139.221 210.416C139.509 210.715 139.653 211.152 139.653 211.728C139.663 212.443 139.391 213.035 138.837 213.504C138.293 213.963 137.551 214.192 136.613 214.192ZM145.183 214L149.311 202.8H150.735L154.847 214H153.423L152.399 211.12H147.631L146.591 214H145.183ZM148.031 210.032H151.999L150.015 204.496L148.031 210.032ZM156.432 214V206.064H157.648L157.728 207.488C157.984 206.987 158.352 206.592 158.832 206.304C159.312 206.016 159.856 205.872 160.464 205.872C161.403 205.872 162.149 206.16 162.704 206.736C163.269 207.301 163.552 208.176 163.552 209.36V214H162.208V209.504C162.208 207.851 161.525 207.024 160.16 207.024C159.477 207.024 158.907 207.275 158.448 207.776C158 208.267 157.776 208.971 157.776 209.888V214H156.432ZM168.724 211.504C168.276 211.504 167.866 211.445 167.492 211.328L166.692 212.08C166.81 212.165 166.954 212.24 167.124 212.304C167.306 212.357 167.562 212.411 167.892 212.464C168.223 212.507 168.687 212.555 169.284 212.608C170.351 212.683 171.114 212.928 171.572 213.344C172.031 213.76 172.26 214.304 172.26 214.976C172.26 215.435 172.132 215.872 171.876 216.288C171.631 216.704 171.247 217.045 170.724 217.312C170.212 217.579 169.551 217.712 168.74 217.712C168.026 217.712 167.391 217.616 166.836 217.424C166.282 217.243 165.85 216.96 165.54 216.576C165.231 216.203 165.076 215.728 165.076 215.152C165.076 214.853 165.156 214.528 165.316 214.176C165.476 213.835 165.775 213.509 166.212 213.2C165.978 213.104 165.775 213.003 165.604 212.896C165.444 212.779 165.295 212.651 165.156 212.512V212.144L166.516 210.8C165.887 210.267 165.572 209.563 165.572 208.688C165.572 208.165 165.695 207.691 165.94 207.264C166.186 206.837 166.543 206.501 167.012 206.256C167.482 206 168.052 205.872 168.724 205.872C169.183 205.872 169.599 205.936 169.972 206.064H172.9V207.072L171.412 207.136C171.722 207.584 171.876 208.101 171.876 208.688C171.876 209.211 171.748 209.685 171.492 210.112C171.247 210.539 170.89 210.88 170.42 211.136C169.962 211.381 169.396 211.504 168.724 211.504ZM168.724 210.4C169.29 210.4 169.738 210.256 170.068 209.968C170.41 209.669 170.58 209.243 170.58 208.688C170.58 208.144 170.41 207.728 170.068 207.44C169.738 207.141 169.29 206.992 168.724 206.992C168.148 206.992 167.69 207.141 167.348 207.44C167.018 207.728 166.852 208.144 166.852 208.688C166.852 209.243 167.018 209.669 167.348 209.968C167.69 210.256 168.148 210.4 168.724 210.4ZM166.388 215.024C166.388 215.557 166.612 215.952 167.06 216.208C167.508 216.475 168.068 216.608 168.74 216.608C169.402 216.608 169.93 216.464 170.324 216.176C170.73 215.888 170.932 215.504 170.932 215.024C170.932 214.683 170.794 214.384 170.516 214.128C170.239 213.883 169.727 213.739 168.98 213.696C168.394 213.653 167.887 213.6 167.46 213.536C167.023 213.771 166.735 214.021 166.596 214.288C166.458 214.565 166.388 214.811 166.388 215.024ZM177.672 214.192C176.915 214.192 176.243 214.021 175.656 213.68C175.069 213.328 174.605 212.843 174.264 212.224C173.933 211.605 173.768 210.875 173.768 210.032C173.768 209.2 173.933 208.475 174.264 207.856C174.595 207.227 175.053 206.741 175.64 206.4C176.237 206.048 176.925 205.872 177.704 205.872C178.472 205.872 179.133 206.048 179.688 206.4C180.253 206.741 180.685 207.195 180.984 207.76C181.283 208.325 181.432 208.933 181.432 209.584C181.432 209.701 181.427 209.819 181.416 209.936C181.416 210.053 181.416 210.187 181.416 210.336H175.096C175.128 210.944 175.267 211.451 175.512 211.856C175.768 212.251 176.083 212.549 176.456 212.752C176.84 212.955 177.245 213.056 177.672 213.056C178.227 213.056 178.691 212.928 179.064 212.672C179.437 212.416 179.709 212.069 179.88 211.632H181.208C180.995 212.368 180.584 212.981 179.976 213.472C179.379 213.952 178.611 214.192 177.672 214.192ZM177.672 207.008C177.032 207.008 176.461 207.205 175.96 207.6C175.469 207.984 175.187 208.549 175.112 209.296H180.104C180.072 208.581 179.827 208.021 179.368 207.616C178.909 207.211 178.344 207.008 177.672 207.008ZM183.213 214V202.48H184.557V214H183.213ZM190.328 214.192C189.571 214.192 188.899 214.021 188.312 213.68C187.726 213.328 187.262 212.843 186.92 212.224C186.59 211.605 186.424 210.875 186.424 210.032C186.424 209.2 186.59 208.475 186.92 207.856C187.251 207.227 187.71 206.741 188.296 206.4C188.894 206.048 189.582 205.872 190.36 205.872C191.128 205.872 191.79 206.048 192.344 206.4C192.91 206.741 193.342 207.195 193.64 207.76C193.939 208.325 194.088 208.933 194.088 209.584C194.088 209.701 194.083 209.819 194.072 209.936C194.072 210.053 194.072 210.187 194.072 210.336H187.752C187.784 210.944 187.923 211.451 188.168 211.856C188.424 212.251 188.739 212.549 189.112 212.752C189.496 212.955 189.902 213.056 190.328 213.056C190.883 213.056 191.347 212.928 191.72 212.672C192.094 212.416 192.366 212.069 192.536 211.632H193.864C193.651 212.368 193.24 212.981 192.632 213.472C192.035 213.952 191.267 214.192 190.328 214.192ZM190.328 207.008C189.688 207.008 189.118 207.205 188.616 207.6C188.126 207.984 187.843 208.549 187.768 209.296H192.76C192.728 208.581 192.483 208.021 192.024 207.616C191.566 207.211 191 207.008 190.328 207.008ZM198.91 214.192C197.96 214.192 197.171 213.952 196.542 213.472C195.912 212.992 195.544 212.341 195.438 211.52H196.814C196.899 211.936 197.118 212.299 197.47 212.608C197.832 212.907 198.318 213.056 198.926 213.056C199.491 213.056 199.907 212.939 200.174 212.704C200.44 212.459 200.574 212.171 200.574 211.84C200.574 211.36 200.398 211.04 200.046 210.88C199.704 210.72 199.219 210.576 198.59 210.448C198.163 210.363 197.736 210.24 197.31 210.08C196.883 209.92 196.526 209.696 196.238 209.408C195.95 209.109 195.806 208.72 195.806 208.24C195.806 207.547 196.062 206.981 196.574 206.544C197.096 206.096 197.8 205.872 198.686 205.872C199.528 205.872 200.216 206.085 200.75 206.512C201.294 206.928 201.608 207.525 201.694 208.304H200.366C200.312 207.899 200.136 207.584 199.838 207.36C199.55 207.125 199.16 207.008 198.67 207.008C198.19 207.008 197.816 207.109 197.55 207.312C197.294 207.515 197.166 207.781 197.166 208.112C197.166 208.432 197.331 208.683 197.662 208.864C198.003 209.045 198.462 209.2 199.038 209.328C199.528 209.435 199.992 209.568 200.43 209.728C200.878 209.877 201.24 210.107 201.518 210.416C201.806 210.715 201.95 211.152 201.95 211.728C201.96 212.443 201.688 213.035 201.134 213.504C200.59 213.963 199.848 214.192 198.91 214.192Z" fill="#F9F9F7"/>
</svg>
